<?xml version="1.0" encoding="utf-8"?>
<!-- Generator: Adobe Illustrator 27.5.0, SVG Export Plug-In . SVG Version: 6.00 Build 0)  -->
<svg version="1.1" xmlns="http://www.w3.org/2000/svg" xmlns:xlink="http://www.w3.org/1999/xlink" x="0px" y="0px"
	 viewBox="0 0 500 500" style="enable-background:new 0 0 500 500;" xml:space="preserve">
<g id="BACKGROUND">
	<rect y="-0.005" style="fill:#E7F1FB;" width="500" height="500"/>
</g>
<g id="OBJECTS">
	<g style="opacity:0.6;">
		<linearGradient id="SVGID_1_" gradientUnits="userSpaceOnUse" x1="9.0904" y1="-7.338" x2="273.4045" y2="150.6835">
			<stop  offset="0.3624" style="stop-color:#FFFFFF;stop-opacity:0"/>
			<stop  offset="1" style="stop-color:#FFFFFF"/>
		</linearGradient>
		<polygon style="fill:url(#SVGID_1_);" points="265.53,138.705 259.99,151.665 0,23.095 0,-0.005 81.35,-0.005 		"/>
		
			<linearGradient id="SVGID_00000180340503062463104470000008179170542508575898_" gradientUnits="userSpaceOnUse" x1="0" y1="110.605" x2="259.99" y2="110.605">
			<stop  offset="0.3624" style="stop-color:#FFFFFF;stop-opacity:0"/>
			<stop  offset="1" style="stop-color:#FFFFFF"/>
		</linearGradient>
		<polygon style="fill:url(#SVGID_00000180340503062463104470000008179170542508575898_);" points="259.99,151.665 255.24,161.385 
			0,84.195 0,59.825 		"/>
		
			<linearGradient id="SVGID_00000009577127732719683900000006882363540142889369_" gradientUnits="userSpaceOnUse" x1="518.2653" y1="-9.0592" x2="271.1437" y2="184.3671">
			<stop  offset="0.3624" style="stop-color:#FFFFFF;stop-opacity:0"/>
			<stop  offset="1" style="stop-color:#FFFFFF"/>
		</linearGradient>
		<polygon style="fill:url(#SVGID_00000009577127732719683900000006882363540142889369_);" points="500,-0.005 500,23.465 
			317.62,147.185 309.05,152.995 300.4,158.865 293.89,151.275 305.58,141.945 308.13,139.905 308.14,139.895 483.41,-0.005 		"/>
		
			<linearGradient id="SVGID_00000091015871782363395820000011387513213437417647_" gradientUnits="userSpaceOnUse" x1="0" y1="154.125" x2="255.24" y2="154.125">
			<stop  offset="0.3624" style="stop-color:#FFFFFF;stop-opacity:0"/>
			<stop  offset="1" style="stop-color:#FFFFFF"/>
		</linearGradient>
		<polygon style="fill:url(#SVGID_00000091015871782363395820000011387513213437417647_);" points="255.24,161.385 255.24,170.025 
			0,170.025 0,138.225 		"/>
		
			<linearGradient id="SVGID_00000119809817094198665840000000646322392606485438_" gradientUnits="userSpaceOnUse" x1="155.586" y1="-15.7585" x2="269.2713" y2="133.0659">
			<stop  offset="0.3624" style="stop-color:#FFFFFF;stop-opacity:0"/>
			<stop  offset="1" style="stop-color:#FFFFFF"/>
		</linearGradient>
		<polygon style="fill:url(#SVGID_00000119809817094198665840000000646322392606485438_);" points="275.4,132.225 274.84,132.605 
			274.84,132.615 265.91,138.705 146.07,-0.005 189.17,-0.005 273.94,129.985 		"/>
		
			<linearGradient id="SVGID_00000097477060170075998320000005783410476312064420_" gradientUnits="userSpaceOnUse" x1="0" y1="252.89" x2="264.22" y2="252.89">
			<stop  offset="0.3624" style="stop-color:#FFFFFF;stop-opacity:0"/>
			<stop  offset="1" style="stop-color:#FFFFFF"/>
		</linearGradient>
		<polygon style="fill:url(#SVGID_00000097477060170075998320000005783410476312064420_);" points="264.22,185.035 263.79,185.265 
			261.64,186.385 0,323.115 0,290.205 254.15,183.895 254.17,183.895 257.1,182.665 258.18,183.025 258.19,183.025 263.39,184.755 
			263.72,184.865 		"/>
		
			<linearGradient id="SVGID_00000144331414124211784740000000066237970300605594_" gradientUnits="userSpaceOnUse" x1="19.3335" y1="313.8534" x2="250.4855" y2="313.8534" gradientTransform="matrix(0.9936 0.113 -0.113 0.9936 37.4652 -15.706)">
			<stop  offset="0.3624" style="stop-color:#FFFFFF;stop-opacity:0"/>
			<stop  offset="1" style="stop-color:#FFFFFF"/>
		</linearGradient>
		<polygon style="fill:url(#SVGID_00000144331414124211784740000000066237970300605594_);" points="7.012,423.156 263.662,184.502 
			265.528,195.664 20.797,439.672 		"/>
		
			<linearGradient id="SVGID_00000146501718781255444750000001153462212654347171_" gradientUnits="userSpaceOnUse" x1="94.19" y1="345.16" x2="273.66" y2="345.16">
			<stop  offset="0.3624" style="stop-color:#FFFFFF;stop-opacity:0"/>
			<stop  offset="1" style="stop-color:#FFFFFF"/>
		</linearGradient>
		<polygon style="fill:url(#SVGID_00000146501718781255444750000001153462212654347171_);" points="273.66,194.695 270.93,200.225 
			122.86,499.995 94.19,499.995 265.34,195.855 265.51,195.545 268.45,190.325 272.57,193.785 		"/>
		
			<linearGradient id="SVGID_00000108294067441186032480000016931291205840233091_" gradientUnits="userSpaceOnUse" x1="0" y1="204.255" x2="273.66" y2="204.255">
			<stop  offset="0.3624" style="stop-color:#FFFFFF;stop-opacity:0"/>
			<stop  offset="1" style="stop-color:#FFFFFF"/>
		</linearGradient>
		<polygon style="fill:url(#SVGID_00000108294067441186032480000016931291205840233091_);" points="273.66,179.705 258.19,183.025 
			254.17,183.895 0,238.485 0,190.655 273.44,170.025 		"/>
		
			<linearGradient id="SVGID_00000133501236298562322580000013374220881005165200_" gradientUnits="userSpaceOnUse" x1="510.2902" y1="193.9404" x2="274.5166" y2="142.7059">
			<stop  offset="0.3624" style="stop-color:#FFFFFF;stop-opacity:0"/>
			<stop  offset="1" style="stop-color:#FFFFFF"/>
		</linearGradient>
		<polygon style="fill:url(#SVGID_00000133501236298562322580000013374220881005165200_);" points="500,163.785 500,187.875 
			330.89,176.675 308.75,175.205 300.71,174.675 298.46,174.525 295.32,174.315 295.16,174.305 292.92,174.155 290.16,173.975 
			289.84,173.955 289.57,165.365 293.34,165.335 297.94,165.305 312.96,165.185 335.11,165.025 		"/>
		
			<linearGradient id="SVGID_00000162346486578313487120000000120056509759850125_" gradientUnits="userSpaceOnUse" x1="523.0136" y1="260.7908" x2="280.0514" y2="150.0358">
			<stop  offset="0.3624" style="stop-color:#FFFFFF;stop-opacity:0"/>
			<stop  offset="1" style="stop-color:#FFFFFF"/>
		</linearGradient>
		<polygon style="fill:url(#SVGID_00000162346486578313487120000000120056509759850125_);" points="500,230.355 500,270.245 
			321.28,186.705 300.24,176.865 300.71,174.675 301.93,168.965 302.23,167.575 315.02,171.635 316.13,171.985 330.89,176.675 		"/>
		
			<linearGradient id="SVGID_00000026162131854952387910000015243807728695057551_" gradientUnits="userSpaceOnUse" x1="246.8901" y1="-9.6303" x2="278.5024" y2="128.0585">
			<stop  offset="0.3624" style="stop-color:#FFFFFF;stop-opacity:0"/>
			<stop  offset="1" style="stop-color:#FFFFFF"/>
		</linearGradient>
		<polygon style="fill:url(#SVGID_00000026162131854952387910000015243807728695057551_);" points="286.89,135.465 275.81,135.465 
			274.84,132.615 273.94,129.985 229.54,-0.005 268.66,-0.005 286.59,133.215 		"/>
		
			<linearGradient id="SVGID_00000021798835833243949460000015932945789917054622_" gradientUnits="userSpaceOnUse" x1="339.6636" y1="-30.9595" x2="278.4978" y2="187.0786">
			<stop  offset="0.3624" style="stop-color:#FFFFFF;stop-opacity:0"/>
			<stop  offset="1" style="stop-color:#FFFFFF"/>
		</linearGradient>
		<polygon style="fill:url(#SVGID_00000021798835833243949460000015932945789917054622_);" points="347.79,-0.005 299.69,138.705 
			285.45,138.705 286.12,135.465 286.59,133.215 286.59,133.205 314.17,-0.005 		"/>
		
			<linearGradient id="SVGID_00000106107061258288516290000005213474583274992319_" gradientUnits="userSpaceOnUse" x1="410.8362" y1="-14.9674" x2="285.7066" y2="162.4762">
			<stop  offset="0.3624" style="stop-color:#FFFFFF;stop-opacity:0"/>
			<stop  offset="1" style="stop-color:#FFFFFF"/>
		</linearGradient>
		<polygon style="fill:url(#SVGID_00000106107061258288516290000005213474583274992319_);" points="408.87,-0.005 308.14,139.895 
			306.67,141.945 297.97,141.945 391.7,-0.005 		"/>
		
			<linearGradient id="SVGID_00000049901450909541562860000009764293325271104393_" gradientUnits="userSpaceOnUse" x1="514.8544" y1="77.5662" x2="275.434" y2="181.9894">
			<stop  offset="0.3624" style="stop-color:#FFFFFF;stop-opacity:0"/>
			<stop  offset="1" style="stop-color:#FFFFFF"/>
		</linearGradient>
		<polygon style="fill:url(#SVGID_00000049901450909541562860000009764293325271104393_);" points="500,63.585 500,104.505 
			335.11,165.025 316.13,171.985 315.24,172.315 315.02,171.635 312.96,165.185 309.05,152.995 308.52,151.355 317.62,147.185 		"/>
		
			<linearGradient id="SVGID_00000105419518030927238410000001392096825016523404_" gradientUnits="userSpaceOnUse" x1="349.6493" y1="455.5837" x2="252.8768" y2="175.7993">
			<stop  offset="0.3624" style="stop-color:#FFFFFF;stop-opacity:0"/>
			<stop  offset="1" style="stop-color:#FFFFFF"/>
		</linearGradient>
		<polygon style="fill:url(#SVGID_00000105419518030927238410000001392096825016523404_);" points="338.98,499.995 321.31,499.995 
			288.91,195.025 287.87,185.165 286.98,176.815 290.16,173.975 293.05,171.395 293.05,171.385 294.58,170.025 295.16,174.305 
			295.26,175.105 296.62,185.215 296.62,185.225 296.72,185.935 		"/>
		
			<linearGradient id="SVGID_00000181066565290886931610000014912777740803818883_" gradientUnits="userSpaceOnUse" x1="528.0989" y1="410.8004" x2="255.4453" y2="147.8842">
			<stop  offset="0.3624" style="stop-color:#FFFFFF;stop-opacity:0"/>
			<stop  offset="1" style="stop-color:#FFFFFF"/>
		</linearGradient>
		<polygon style="fill:url(#SVGID_00000181066565290886931610000014912777740803818883_);" points="500,350.565 500,416.845 
			308.56,198.805 296.62,185.215 296.45,185.025 292.62,180.655 292.92,174.155 293.05,171.385 293.34,165.335 293.53,161.255 
			297.94,165.305 301.93,168.965 308.75,175.205 321.28,186.705 		"/>
		
			<linearGradient id="SVGID_00000181055961452088057940000007771617406867025584_" gradientUnits="userSpaceOnUse" x1="441.7663" y1="499.6878" x2="249.4522" y2="179.8612">
			<stop  offset="0.3624" style="stop-color:#FFFFFF;stop-opacity:0"/>
			<stop  offset="1" style="stop-color:#FFFFFF"/>
		</linearGradient>
		<polygon style="fill:url(#SVGID_00000181055961452088057940000007771617406867025584_);" points="433.84,499.995 388.53,499.995 
			296.72,185.935 296.46,185.035 296.45,185.025 294.94,179.845 295.26,175.105 295.32,174.315 295.75,168.015 298.46,174.525 
			308.56,198.805 		"/>
		
			<linearGradient id="SVGID_00000034056676961169461660000003434589783834167730_" gradientUnits="userSpaceOnUse" x1="256.2154" y1="437.8303" x2="217.6952" y2="172.8123">
			<stop  offset="0.3624" style="stop-color:#FFFFFF;stop-opacity:0"/>
			<stop  offset="1" style="stop-color:#FFFFFF"/>
		</linearGradient>
		<polygon style="fill:url(#SVGID_00000034056676961169461660000003434589783834167730_);" points="290.21,185.635 288.91,195.025 
			246.83,499.995 194.6,499.995 270.93,200.225 272.57,193.785 275.4,182.665 287.87,185.165 		"/>
	</g>
	<path style="fill:#F7FAF3;" d="M55.087,344.198c10.515-5.143,22.383-1.583,26.212,6.693c-1.06-7.562,13.535-25.579,38.897-20.415
		c15.428,3.142,11.223,18.828,10.697,21.909c4.381-2.182,12.001-1.796,15.994,0.746c3.993,2.542,5.175,7.108,2.725,10.52
		c3.16-0.347,3.146-0.993,6.336-1.141c3.37-0.156,6.303,1.936,7.295,4.266c0.992,2.331,0.504,4.838,0.008,7.25
		c2.972-1.882,7.566-2.316,11.344-1.475c3.778,0.841,6.382,4.291,4.354,6.741c42.918,2.311,86.4,4.041,118.087,6.526
		c3.429,4.64-135.612-3.123-201.138-2.217c-15.066,0.208-30.508,0.861-44.841-2.496c-3.722-0.872-7.553-2.144-9.614-4.545
		C39.379,374.157,37.609,352.746,55.087,344.198z"/>
	<path style="fill:#CFDFF6;" d="M500,385.244c-32.464,4.334-64.936,8.67-97.65,12.308c-17.256,1.919-34.812,3.65-52.314,2.768
		c-11.799-0.594-23.431-2.372-35.273-2.311c-17.619,0.09-34.512,4.235-52.093,4.921c-19.964,0.779-39.581-2.926-58.355-6.957
		c-12.564-2.697-25.334-5.6-38.72-5.783c-16.942-0.232-33.026,3.895-48.806,7.495c-36.81,8.398-75.289,14.311-114.421,17.582H500
		V385.244z"/>
	<polygon style="fill:#10567A;" points="158.272,405.964 168.634,387.307 172.656,393.413 174.035,392.125 175.903,395.312 
		178.122,394.153 181.508,396.235 184.777,393.132 188.046,397.426 189.448,396.067 193.184,398.667 195.519,396.906 
		197.504,399.749 199.723,398.751 200.54,400.177 203.926,399.003 207.779,402.106 209.064,401.016 212.567,404.454 
		215.019,402.022 216.069,403.364 220.156,398.332 222.929,403.364 224.943,401.586 227.045,403.364 229.38,402.525 
		232.416,405.461 234.284,404.874 236.503,409.014 	"/>
	<path style="fill:#1F7689;" d="M500,391.399c-7.701-4.792-23.699-5.474-29.522,0.644c-5.635-4.608-16.493-4.693-22.254-0.175
		c-6.201-3.952-16.571-3.354-21.904,1.264c-1.33,1.152-2.538,2.588-4.507,2.942c-1.865,0.336-3.721-0.429-5.541-0.884
		c-7.003-1.75-15.482,1.87-17.103,7.302c-6.949-5.298-21.067-2.587-23.817,4.573c-5.441-2.794-12.675-2.943-18.998-1.564
		c-6.323,1.378-11.952,4.111-17.478,6.809c0.252-1.956-2.087-3.666-4.619-4.124c-2.531-0.458-5.176,0.016-7.703,0.487
		c-14.407,2.69-28.814,5.379-43.221,8.069c69.852,15.105,145.408,17.934,216.667,7.211V391.399z"/>
	
		<linearGradient id="SVGID_00000105416458148855700670000000089428458855353480_" gradientUnits="userSpaceOnUse" x1="341.2614" y1="396.2858" x2="341.2614" y2="426.3494">
		<stop  offset="0.008" style="stop-color:#62B48E"/>
		<stop  offset="1" style="stop-color:#88D180;stop-opacity:0"/>
	</linearGradient>
	<path style="fill:url(#SVGID_00000105416458148855700670000000089428458855353480_);" d="M469.021,404.045
		c-13.438-8.783-31.248-6.579-46.492-1.545c-15.244,5.034-29.966,12.613-45.978,13.764c-10.234,0.735-20.444-1.214-30.67-2.05
		c-30.075-2.459-60.02,4.71-90.12,6.851c-14.212,1.011-28.477,0.9-42.724,0.788c0,0,135.223,18.122,200.267,6.959
		C478.349,417.648,469.021,404.045,469.021,404.045z"/>
	<g>
		<path style="fill:#62B48E;" d="M0,364.374c20.887,5.933,40.707-10.022,62.411-9.383c21.377,0.629,40.977,11.197,60.443,20.052
			c89.013,40.492,191.656,48.363,286.973,26.512c13.924-3.192,28.101-7.024,42.288-5.348c19.133,2.26,28.624,16.224,47.885,16.669
			v87.12H0V364.374z"/>
		
			<linearGradient id="SVGID_00000180362091283225962570000011213084045871179169_" gradientUnits="userSpaceOnUse" x1="0" y1="397.786" x2="233.8209" y2="397.786">
			<stop  offset="0.008" style="stop-color:#62B48E"/>
			<stop  offset="1" style="stop-color:#88D180;stop-opacity:0"/>
		</linearGradient>
		<path style="fill:url(#SVGID_00000180362091283225962570000011213084045871179169_);" d="M211.703,415.981
			c-8.44-1.617-17.115-1.266-25.706-1.055c-18.234,0.448-36.529,0.234-54.63-2.01c-10.79-1.338-22.009-3.63-30.371-10.578
			c-1.132-0.941-2.263-2.073-2.483-3.529c-0.22-1.455,0.983-3.161,2.429-2.885c16.797,3.213,34.044,4.07,51.077,2.537
			c2.134-0.192,4.88-1.066,4.847-3.208c-21.899-5.279-43.027-13.748-62.508-25.058c-8.151-4.732-16.728-10.15-26.135-9.564
			c-4.818,0.3-9.374,2.179-13.874,3.925C36.831,371.351,17.453,376.212,0,369.253l0.064,50.11
			c55.15,17.154,114.484,16.298,172.226,15.014c20.661-0.46,41.55-0.96,61.531-6.238
			C228.474,421.41,220.143,417.598,211.703,415.981z"/>
	</g>
	<path style="fill:#17527A;" d="M116.136,426.358c-10.496-2.502-20.201-5.968-27.433-9.797c-5.423-2.872-9.905-6.11-17.45-8.287
		c-5.033-1.452-10.617-2.181-16.01-3.029C35.881,402.203,15.722,397.96,0,391.67v15.615L116.136,426.358z"/>
	<path style="fill:#17527A;" d="M69.244,420.105c21.673,2.902,43.932,5.779,65.206,0.719c7.166-1.705,14.199-4.307,21.557-4.663
		c10.951-0.531,21.695,3.96,32.641,3.349c10.153-0.567,19.784-5.495,29.952-5.346c6.756,0.099,13.247,2.436,19.84,3.917
		c7.265,1.632,14.716,2.231,22.138,2.826c16.838,1.349,33.677,2.698,50.515,4.047c7.29,0.584,14.788,1.147,21.775-1.013
		c4.234-1.309,8.182-3.594,12.559-4.281c6.183-0.97,12.336,1.349,18.458,2.648c12.416,2.635,23.949,4.358,35.344-1.23
		c7.185-3.524,15.567-11.991,23.448-13.385c8.011-1.418,16.101,1.197,24.061,2.877c12.731,2.686,25.96,2.995,38.802,0.904
		c-10.823,5.658-23.34,8.461-35.354,10.653c-81.748,14.91-163.808,29.857-246.828,33.427c-14.948,0.643-29.954,0.914-44.842-0.569
		C124.307,451.576,96.827,440.622,69.244,420.105z"/>
	<g>
		<path style="fill:#378D74;" d="M108.853,403.232c-0.388,0.312-0.89,0.563-1.554,0.729c-0.95,0.238-1.513,1.288-1.519,2.268
			c-0.005,0.909-0.064,1.972,0.329,2.817c0.279,0.6,1.085,1,1.3,1.565c0.587,1.546-1.246,2.085-2.557,2.456
			c-2.099,0.593,1.771,7.597,5.565,6.524c1.542-0.436,3.036-1.254,4.637-1.144c4.398,0.306,7.403,3.369,12.068,1.143
			c1.631-0.778,2.816-2.803,2.034-4.432c-0.458-0.953-1.457-1.554-1.938-2.495c-0.957-1.873-0.007-4.203-0.812-6.186
			c-0.799-1.969-2.128-3.036-3.702-4.414c-1.151-1.016-1.503-2.651-2.374-3.914c-1.41-2.045-5.587-3.306-7.865-1.947
			C109.77,397.808,111.105,401.414,108.853,403.232z"/>
		
			<linearGradient id="SVGID_00000085211017206389396300000002399895934271128227_" gradientUnits="userSpaceOnUse" x1="111.5006" y1="415.7492" x2="118.3248" y2="398.046">
			<stop  offset="0.0241" style="stop-color:#3B967B"/>
			<stop  offset="0.9893" style="stop-color:#378D74;stop-opacity:0"/>
		</linearGradient>
		<path style="fill:url(#SVGID_00000085211017206389396300000002399895934271128227_);" d="M111.091,403.304
			c0.028,0.912,0.581,1.819,0.307,2.69c-0.325,1.033-1.59,1.391-2.35,2.162c-0.205,0.208-0.383,0.476-0.37,0.768
			c0.01,0.219,0.125,0.417,0.241,0.602c0.599,0.952,1.357,2.066,0.913,3.1c-0.257,0.599-0.854,0.965-1.297,1.443
			c-0.443,0.478-0.718,1.281-0.264,1.748c0.216,0.222,0.542,0.3,0.852,0.309c0.957,0.028,1.832-0.49,2.736-0.805
			c0.904-0.315,2.065-0.36,2.662,0.388c0.101,0.127,0.2,0.284,0.36,0.309c0.138,0.022,0.268-0.066,0.375-0.157
			c0.895-0.764,1.252-2.098,0.859-3.207c-0.163-0.46-0.447-0.918-0.361-1.399c0.09-0.501,0.564-0.849,1.047-1.01
			s1.002-0.19,1.486-0.348c0.738-0.24,1.39-0.823,1.579-1.575c0.189-0.753-0.176-1.645-0.894-1.938
			c-0.378-0.154-0.824-0.147-1.156-0.385c-1.085-0.774,0.19-2.992-0.965-3.658c-0.513-0.296-1.162-0.018-1.65,0.316
			c-0.133,0.091-0.271,0.19-0.431,0.208c-0.898,0.101-0.753-1.738-1.727-1.902C111.954,400.78,111.064,402.442,111.091,403.304z"/>
		
			<linearGradient id="SVGID_00000060736299286882595240000008728388969009184136_" gradientUnits="userSpaceOnUse" x1="120.1204" y1="406.3893" x2="121.9995" y2="419.1476">
			<stop  offset="0.0241" style="stop-color:#3B967B"/>
			<stop  offset="0.9893" style="stop-color:#378D74;stop-opacity:0"/>
		</linearGradient>
		<path style="fill:url(#SVGID_00000060736299286882595240000008728388969009184136_);" d="M121.034,409.526
			c-0.605,0.734-0.103,1.877-0.431,2.77c-0.566,1.542-3.178,1.527-3.64,3.104c-0.215,0.734,0.247,1.598,0.976,1.827
			c0.89,0.279,1.867-0.314,2.771-0.082c0.604,0.155,1.054,0.647,1.591,0.964c0.717,0.423,1.617,0.524,2.41,0.27
			c0.535-0.172,1.058-0.558,1.153-1.111c0.128-0.744-0.529-1.355-0.969-1.969c-0.559-0.779,0.392-1.433,0.588-2.218
			c0.173-0.692,0.125-1.327-0.25-1.934C124.584,410.095,122.132,408.193,121.034,409.526z"/>
		<path style="fill:#6E604A;" d="M119.048,414.127c-1.305,1.062-2.427,2.596-3.195,4.197c-0.427-2.344-1.081-4.612-2.143-6.572
			c-0.123-0.227-0.554-0.14-0.517,0.14c0.304,2.272,1.051,4.478,1.47,6.736c0.517,2.789,0.763,5.602,0.82,8.436
			c0.015,0.765,1.108,0.692,1.126-0.006c0.007,0.002,0.015,0.004,0.022,0.006c-0.065-2.394-0.196-5.028-0.582-7.61
			c0.424-0.775,0.831-1.559,1.31-2.306c0.618-0.964,1.311-1.874,1.903-2.855C119.348,414.152,119.163,414.034,119.048,414.127z"/>
	</g>
	<g>
		<path style="fill:#378D74;" d="M378.348,391.921c-0.529,0.426-1.215,0.768-2.12,0.995c-1.296,0.324-2.065,1.757-2.072,3.094
			c-0.007,1.24-0.087,2.69,0.449,3.843c0.381,0.819,1.48,1.364,1.773,2.135c0.8,2.109-1.7,2.844-3.489,3.35
			c-2.864,0.809,2.416,10.363,7.591,8.9c2.103-0.595,4.142-1.711,6.326-1.56c6,0.417,10.099,4.596,16.464,1.559
			c2.225-1.062,3.841-3.823,2.774-6.046c-0.624-1.301-1.988-2.119-2.644-3.404c-1.306-2.556-0.01-5.733-1.108-8.439
			c-1.09-2.686-2.903-4.142-5.051-6.021c-1.57-1.385-2.05-3.616-3.238-5.34c-1.924-2.79-7.622-4.51-10.729-2.657
			C379.598,384.522,381.42,389.442,378.348,391.921z"/>
		
			<linearGradient id="SVGID_00000173879733990136924590000003251890349370670253_" gradientUnits="userSpaceOnUse" x1="381.9597" y1="408.9971" x2="391.2692" y2="384.8463">
			<stop  offset="0.0241" style="stop-color:#3B967B"/>
			<stop  offset="0.9893" style="stop-color:#378D74;stop-opacity:0"/>
		</linearGradient>
		<path style="fill:url(#SVGID_00000173879733990136924590000003251890349370670253_);" d="M381.401,392.02
			c0.038,1.244,0.793,2.482,0.419,3.669c-0.443,1.41-2.169,1.897-3.206,2.95c-0.28,0.284-0.523,0.649-0.505,1.048
			c0.013,0.298,0.17,0.569,0.329,0.821c0.817,1.299,1.851,2.819,1.246,4.229c-0.351,0.817-1.165,1.317-1.769,1.969
			c-0.604,0.652-0.979,1.747-0.36,2.384c0.295,0.303,0.74,0.41,1.162,0.422c1.306,0.038,2.499-0.669,3.733-1.098
			c1.234-0.429,2.817-0.492,3.631,0.53c0.138,0.173,0.272,0.387,0.491,0.421c0.189,0.029,0.366-0.091,0.511-0.215
			c1.221-1.042,1.708-2.862,1.171-4.375c-0.223-0.628-0.61-1.253-0.492-1.909c0.123-0.684,0.77-1.157,1.428-1.377
			s1.367-0.259,2.028-0.474c1.007-0.328,1.896-1.122,2.153-2.149c0.258-1.027-0.24-2.244-1.22-2.644
			c-0.516-0.211-1.124-0.201-1.578-0.525c-1.48-1.056,0.259-4.082-1.316-4.991c-0.699-0.403-1.585-0.025-2.25,0.432
			c-0.181,0.124-0.369,0.259-0.587,0.284c-1.224,0.138-1.027-2.372-2.356-2.595C382.578,388.575,381.365,390.844,381.401,392.02z"/>
		
			<linearGradient id="SVGID_00000086681530435266607730000001640022317317074343_" gradientUnits="userSpaceOnUse" x1="393.7189" y1="396.2283" x2="396.2824" y2="413.6331">
			<stop  offset="0.0241" style="stop-color:#3B967B"/>
			<stop  offset="0.9893" style="stop-color:#378D74;stop-opacity:0"/>
		</linearGradient>
		<path style="fill:url(#SVGID_00000086681530435266607730000001640022317317074343_);" d="M394.965,400.508
			c-0.825,1.002-0.14,2.56-0.588,3.778c-0.773,2.104-4.335,2.083-4.965,4.234c-0.294,1.001,0.336,2.18,1.332,2.492
			c1.214,0.381,2.547-0.428,3.78-0.111c0.824,0.211,1.438,0.883,2.171,1.315c0.979,0.578,2.206,0.715,3.288,0.368
			c0.73-0.234,1.444-0.761,1.573-1.516c0.174-1.015-0.722-1.849-1.322-2.686c-0.762-1.063,0.535-1.955,0.802-3.026
			c0.236-0.944,0.171-1.811-0.341-2.638C399.809,401.284,396.463,398.689,394.965,400.508z"/>
		<path style="fill:#6E604A;" d="M392.256,406.785c-1.78,1.449-3.311,3.542-4.359,5.725c-0.582-3.197-1.474-6.292-2.924-8.965
			c-0.168-0.31-0.756-0.191-0.705,0.191c0.415,3.099,1.434,6.109,2.005,9.189c0.706,3.805,1.041,7.642,1.119,11.508
			c0.021,1.043,1.511,0.944,1.536-0.008c0.01,0.003,0.02,0.006,0.031,0.008c-0.089-3.265-0.268-6.859-0.794-10.382
			c0.579-1.058,1.134-2.127,1.787-3.146c0.843-1.315,1.788-2.557,2.596-3.895C392.666,406.818,392.412,406.658,392.256,406.785z"/>
	</g>
	<g>
		<path style="fill:#429B7D;" d="M131.259,408.205c-0.081,0.015-0.164,0.028-0.25,0.041c-1.003,0.149-1.768,0.127-1.913,1.357
			c-0.061,0.516,0.164,1.023,0.184,1.542c0.045,1.129-0.841,2.044-1.575,2.903c-0.734,0.859-1.395,2.065-0.867,3.063
			c0.173,0.327,0.46,0.589,0.602,0.931c0.205,0.498,0.073,1.092,0.307,1.578c0.34,0.705,1.287,0.865,2.058,0.732
			c0.771-0.133,1.525-0.465,2.305-0.389c0.913,0.089,1.667,0.712,2.445,1.198c0.823,0.513,1.762,0.898,2.731,0.871
			c0.969-0.028,1.964-0.538,2.368-1.419c0.091-0.199,0.154-0.416,0.295-0.584c0.172-0.206,0.437-0.308,0.692-0.39
			c1.126-0.361,2.361-0.515,3.305-1.227c0.944-0.712,1.379-2.291,0.469-3.046c-0.21-0.174-0.477-0.294-0.617-0.528
			c-0.372-0.621,0.42-1.318,0.47-2.04c0.062-0.885-0.947-1.411-1.79-1.686s-1.861-0.751-1.859-1.637
			c0.001-0.352,0.177-0.706,0.08-1.044c-0.215-0.749-1.803-0.975-2.335-1.609c-0.746-0.89-1.824-2.173-3.102-1.709
			c-0.953,0.346-1.431,0.973-1.936,1.749C132.769,407.721,132.17,408.038,131.259,408.205z"/>
		
			<linearGradient id="SVGID_00000099638664294633196390000007572936716825206966_" gradientUnits="userSpaceOnUse" x1="128.5256" y1="415.3742" x2="141.4737" y2="415.3742">
			<stop  offset="0.0241" style="stop-color:#378D74"/>
			<stop  offset="0.9893" style="stop-color:#429B7D;stop-opacity:0"/>
		</linearGradient>
		<path style="fill:url(#SVGID_00000099638664294633196390000007572936716825206966_);" d="M135.704,409.951
			c-0.46,0.128-0.805,0.497-1.153,0.825c-0.348,0.327-0.77,0.644-1.248,0.621c-0.264-0.012-0.551-0.124-0.775,0.014
			c-0.309,0.191-0.221,0.648-0.208,1.01c0.026,0.76-0.465,1.448-1.048,1.936c-0.583,0.487-1.271,0.836-1.86,1.316
			c-0.405,0.33-0.775,0.751-0.868,1.265c-0.093,0.514,0.184,1.12,0.693,1.24c0.576,0.135,1.227-0.358,1.736-0.057
			c0.309,0.182,0.405,0.573,0.526,0.91c0.121,0.337,0.374,0.706,0.731,0.681c0.21-0.014,0.382-0.164,0.569-0.262
			c0.817-0.428,1.774,0.156,2.534,0.679c0.76,0.522,1.822,0.999,2.537,0.416c0.44-0.358,0.543-0.982,0.567-1.549
			c0.023-0.554,0.102-1.256,0.632-1.416c0.206-0.062,0.428-0.015,0.643-0.008c0.72,0.026,1.431-0.442,1.693-1.113
			c0.061-0.155,0.098-0.33,0.042-0.486c-0.169-0.467-0.9-0.331-1.283-0.647c-0.416-0.343-0.235-1.006-0.012-1.497
			c0.223-0.49,0.427-1.139,0.033-1.506c-0.321-0.3-0.83-0.199-1.26-0.109c-0.43,0.09-0.977,0.1-1.199-0.279
			c-0.166-0.283-0.06-0.643-0.112-0.967C137.53,410.456,136.149,409.827,135.704,409.951z"/>
		<path style="fill:#6E604A;" d="M137.577,417.294c0.045-0.048-0.012-0.125-0.071-0.092c-1.109,0.631-2.36,1.757-2.973,3.027
			c0.042-2.29,0.362-4.53,0.855-6.827c0.043-0.203-0.266-0.365-0.357-0.151c-0.473,1.114-0.781,2.274-0.976,3.456
			c-0.028-0.654-0.281-1.327-0.485-1.925c-0.318-0.931-0.691-1.907-1.269-2.705c-0.115-0.158-0.42-0.072-0.343,0.144
			c0.329,0.915,0.772,1.78,1.067,2.711c0.256,0.807,0.324,1.75,0.798,2.46c0.031,0.047,0.087,0.043,0.128,0.014
			c-0.195,1.547-0.208,3.124-0.117,4.682c0.188,3.199,0.571,6.846,1.773,9.823c0.059,0.148,0.305,0.146,0.299-0.04
			c-0.099-2.977-1.036-5.912-1.289-8.89c-0.048-0.565-0.071-1.123-0.083-1.679c0.503-0.629,0.847-1.39,1.348-2.03
			C136.416,418.592,136.987,417.924,137.577,417.294z"/>
	</g>
	<g>
		<path style="fill:#429B7D;" d="M283.981,403.279c-0.098,0.018-0.198,0.034-0.302,0.05c-1.211,0.179-2.134,0.153-2.309,1.638
			c-0.073,0.623,0.198,1.235,0.222,1.862c0.054,1.362-1.015,2.467-1.901,3.504c-0.886,1.037-1.684,2.492-1.046,3.697
			c0.209,0.395,0.555,0.711,0.726,1.124c0.248,0.601,0.088,1.318,0.37,1.904c0.41,0.851,1.553,1.044,2.484,0.883
			c0.931-0.161,1.841-0.561,2.781-0.47c1.102,0.107,2.012,0.86,2.951,1.446c0.993,0.619,2.127,1.084,3.296,1.051
			c1.17-0.034,2.37-0.649,2.858-1.713c0.11-0.24,0.186-0.502,0.356-0.705c0.208-0.248,0.527-0.371,0.836-0.47
			c1.359-0.436,2.849-0.622,3.989-1.481c1.14-0.859,1.664-2.765,0.566-3.676c-0.253-0.21-0.576-0.355-0.745-0.637
			c-0.448-0.75,0.507-1.591,0.568-2.462c0.074-1.068-1.143-1.703-2.161-2.034c-1.018-0.331-2.246-0.906-2.244-1.976
			c0.001-0.424,0.214-0.852,0.097-1.259c-0.26-0.903-2.176-1.177-2.818-1.941c-0.901-1.074-2.201-2.623-3.744-2.062
			c-1.151,0.418-1.728,1.174-2.336,2.111C285.804,402.694,285.081,403.077,283.981,403.279z"/>
		
			<linearGradient id="SVGID_00000106123875433051383010000006849664296199330493_" gradientUnits="userSpaceOnUse" x1="280.6828" y1="411.9312" x2="296.3099" y2="411.9312">
			<stop  offset="0.0241" style="stop-color:#378D74"/>
			<stop  offset="0.9893" style="stop-color:#429B7D;stop-opacity:0"/>
		</linearGradient>
		<path style="fill:url(#SVGID_00000106123875433051383010000006849664296199330493_);" d="M289.346,405.386
			c-0.556,0.155-0.972,0.6-1.392,0.996c-0.42,0.395-0.93,0.777-1.506,0.75c-0.318-0.015-0.665-0.15-0.936,0.017
			c-0.373,0.23-0.266,0.782-0.251,1.22c0.031,0.917-0.561,1.748-1.264,2.336c-0.704,0.588-1.534,1.009-2.245,1.589
			c-0.488,0.399-0.935,0.906-1.048,1.527c-0.113,0.62,0.222,1.352,0.836,1.496c0.695,0.163,1.481-0.432,2.095-0.069
			c0.373,0.22,0.489,0.691,0.635,1.099s0.451,0.851,0.883,0.822c0.254-0.017,0.461-0.198,0.687-0.316
			c0.986-0.516,2.141,0.189,3.059,0.819c0.917,0.631,2.199,1.205,3.062,0.502c0.531-0.432,0.655-1.185,0.684-1.869
			c0.028-0.668,0.123-1.516,0.763-1.709c0.249-0.075,0.516-0.019,0.776-0.009c0.868,0.031,1.727-0.533,2.043-1.343
			c0.073-0.187,0.119-0.398,0.05-0.586c-0.204-0.563-1.087-0.4-1.549-0.781c-0.502-0.414-0.284-1.214-0.015-1.806
			c0.269-0.592,0.515-1.374,0.04-1.818c-0.388-0.362-1.001-0.24-1.521-0.132c-0.519,0.108-1.179,0.121-1.448-0.336
			c-0.201-0.341-0.072-0.776-0.135-1.167C291.55,405.996,289.883,405.237,289.346,405.386z"/>
		<path style="fill:#6E604A;" d="M291.607,414.248c0.054-0.058-0.014-0.151-0.086-0.111c-1.339,0.761-2.848,2.12-3.588,3.654
			c0.051-2.764,0.437-5.467,1.032-8.24c0.052-0.245-0.321-0.441-0.431-0.182c-0.57,1.345-0.942,2.745-1.178,4.171
			c-0.034-0.79-0.339-1.601-0.585-2.323c-0.384-1.123-0.834-2.301-1.532-3.265c-0.138-0.191-0.507-0.086-0.414,0.174
			c0.397,1.105,0.932,2.149,1.288,3.272c0.309,0.975,0.391,2.112,0.963,2.969c0.037,0.056,0.105,0.052,0.155,0.017
			c-0.236,1.867-0.251,3.77-0.141,5.65c0.226,3.86,0.689,8.263,2.139,11.856c0.072,0.178,0.369,0.176,0.361-0.049
			c-0.12-3.592-1.25-7.135-1.556-10.729c-0.058-0.682-0.085-1.355-0.1-2.026c0.608-0.759,1.022-1.678,1.627-2.449
			C290.206,415.815,290.895,415.009,291.607,414.248z"/>
	</g>
	<g>
		<path style="fill:#429B7D;" d="M407.847,398.524c-0.098,0.018-0.198,0.034-0.302,0.05c-1.211,0.179-2.134,0.153-2.309,1.638
			c-0.073,0.623,0.198,1.235,0.222,1.861c0.054,1.363-1.015,2.467-1.901,3.504c-0.886,1.037-1.684,2.492-1.046,3.697
			c0.209,0.395,0.555,0.711,0.726,1.124c0.248,0.601,0.088,1.318,0.37,1.904c0.41,0.851,1.553,1.044,2.484,0.883
			c0.931-0.161,1.841-0.561,2.781-0.47c1.102,0.107,2.012,0.86,2.951,1.446c0.993,0.619,2.127,1.084,3.296,1.051
			c1.17-0.033,2.37-0.649,2.858-1.713c0.11-0.24,0.186-0.502,0.356-0.705c0.208-0.249,0.527-0.371,0.836-0.47
			c1.359-0.436,2.849-0.622,3.989-1.481c1.139-0.859,1.664-2.765,0.565-3.676c-0.253-0.21-0.576-0.355-0.745-0.637
			c-0.448-0.75,0.507-1.591,0.568-2.462c0.074-1.068-1.143-1.703-2.161-2.034c-1.018-0.331-2.246-0.906-2.244-1.976
			c0.001-0.424,0.214-0.852,0.097-1.26c-0.26-0.903-2.176-1.177-2.818-1.941c-0.901-1.074-2.201-2.623-3.744-2.062
			c-1.151,0.418-1.728,1.174-2.336,2.111C409.669,397.939,408.947,398.322,407.847,398.524z"/>
		
			<linearGradient id="SVGID_00000062880275874518984890000001239376702244647577_" gradientUnits="userSpaceOnUse" x1="404.5481" y1="407.1762" x2="420.1752" y2="407.1762">
			<stop  offset="0.0241" style="stop-color:#378D74"/>
			<stop  offset="0.9893" style="stop-color:#429B7D;stop-opacity:0"/>
		</linearGradient>
		<path style="fill:url(#SVGID_00000062880275874518984890000001239376702244647577_);" d="M413.212,400.631
			c-0.556,0.155-0.972,0.6-1.392,0.996c-0.42,0.395-0.93,0.778-1.506,0.75c-0.318-0.015-0.665-0.15-0.936,0.017
			c-0.373,0.23-0.266,0.782-0.251,1.22c0.031,0.917-0.561,1.748-1.264,2.336c-0.704,0.588-1.534,1.009-2.245,1.589
			c-0.488,0.399-0.935,0.906-1.048,1.527c-0.113,0.62,0.222,1.352,0.836,1.496c0.695,0.163,1.481-0.432,2.095-0.069
			c0.373,0.22,0.489,0.691,0.635,1.099c0.146,0.407,0.451,0.851,0.883,0.822c0.254-0.017,0.461-0.198,0.687-0.316
			c0.986-0.516,2.141,0.189,3.059,0.819c0.917,0.631,2.199,1.205,3.062,0.502c0.531-0.432,0.655-1.186,0.684-1.87
			c0.028-0.668,0.123-1.516,0.763-1.709c0.249-0.075,0.516-0.018,0.776-0.009c0.868,0.031,1.727-0.533,2.043-1.343
			c0.073-0.187,0.118-0.398,0.05-0.587c-0.204-0.563-1.087-0.4-1.549-0.781c-0.502-0.413-0.284-1.214-0.015-1.806
			c0.269-0.592,0.515-1.374,0.04-1.818c-0.388-0.362-1.001-0.24-1.521-0.132s-1.179,0.121-1.448-0.336
			c-0.201-0.341-0.072-0.776-0.135-1.167C415.415,401.241,413.748,400.482,413.212,400.631z"/>
		<path style="fill:#6E604A;" d="M415.472,409.493c0.054-0.058-0.014-0.152-0.086-0.111c-1.339,0.761-2.848,2.12-3.588,3.654
			c0.051-2.764,0.437-5.466,1.032-8.24c0.052-0.245-0.321-0.441-0.431-0.182c-0.57,1.345-0.942,2.745-1.178,4.17
			c-0.034-0.79-0.339-1.601-0.585-2.323c-0.384-1.123-0.834-2.301-1.531-3.265c-0.138-0.191-0.507-0.086-0.414,0.174
			c0.397,1.105,0.932,2.149,1.288,3.272c0.309,0.975,0.391,2.112,0.963,2.969c0.037,0.056,0.105,0.052,0.155,0.017
			c-0.236,1.867-0.251,3.77-0.141,5.65c0.226,3.86,0.689,8.263,2.139,11.856c0.072,0.178,0.369,0.176,0.361-0.049
			c-0.12-3.592-1.25-7.135-1.556-10.729c-0.058-0.682-0.085-1.355-0.1-2.026c0.608-0.759,1.022-1.678,1.627-2.45
			C414.072,411.06,414.76,410.254,415.472,409.493z"/>
	</g>
	<path style="fill:#88D77E;" d="M255.21,421.09c-1.187-1.241-2.484-2.398-3.968-2.824c-2.412-0.692-4.853,0.636-7.223,1.542
		c-2.37,0.906-5.217,1.271-7.045-0.902c-0.818-0.973-1.313-2.337-2.114-3.333c-1.761-2.191-4.577-2.11-6.879-1.094
		c-2.302,1.015-4.384,2.798-6.724,3.655c-7.842,2.871-16.911-5.074-24.007,0.156c-1.986,1.464-7.429,6.086-7.429,6.086
		c24.102,1.444,47.183,1.749,71.209,4.635C259.365,426.053,257.402,423.383,255.21,421.09z"/>
	<path style="fill:#469B60;" d="M208.026,422.775c-1.782-2.477-5.222-2.944-8.217-2.71c-2.995,0.234-6.081,0.94-8.949,0.003
		c-1.896-0.619-3.62-1.939-5.606-1.985c-3.669-0.085-6.989,4.184-10.357,2.676c-1.817-0.814-2.832-3.127-4.783-3.491
		c-2.653-0.494-4.298,2.811-6.66,4.112c-2.648,1.458-5.887,0.231-8.903,0.05c-4.32-0.259-10.478,3.784-14.264,6.499
		C161.654,429.759,187.849,429.98,208.026,422.775z"/>
	<g>
		<path style="fill:#73BE7B;" d="M0,395.349c55.684,18.09,114.391,36.424,172.601,30.138c13.029-1.407,25.958-4.046,39.062-4.235
			c13.067-0.188,26.027,2.063,38.979,3.803c22.724,3.054,45.678,4.549,68.599,3.936c13.592-0.364,27.18-1.468,40.768-1
			c13.107,0.451,26.115,2.361,39.091,4.269c34.038,5.003,66.864,10.409,100.901,15.412v52.323H0V395.349z"/>
		
			<linearGradient id="SVGID_00000150799623502298172290000009908958611431981474_" gradientUnits="userSpaceOnUse" x1="444.5906" y1="454.1011" x2="-20.067" y2="454.1011">
			<stop  offset="0" style="stop-color:#459A5F"/>
			<stop  offset="0.9947" style="stop-color:#73BE7B;stop-opacity:0"/>
		</linearGradient>
		<path style="fill:url(#SVGID_00000150799623502298172290000009908958611431981474_);" d="M0,408.195
			c14.395,9.19,29.682,18.845,45.872,24.281c13.948,4.683,28.746,6.381,43.455,6.723c29.062,0.675,57.96-3.823,86.747-7.865
			c10.738-1.508,21.549-2.957,32.385-2.549c16.996,0.64,33.438,5.812,49.957,9.858c51.164,12.532,104.264,14.429,156.928,15.589
			c4.331,0.095,9.201,0.425,12.05,3.689c-1.152,2.809-4.759,3.475-7.786,3.714c-66.741,5.249-133.818-1.484-200.228-9.948
			c-13.913-1.773-28.167-3.609-41.844-0.501c17.4,1.392,34.602,5.233,50.941,11.374c-0.049,2.965-3.884,4.048-6.843,4.236
			c-30.613,1.935-62.439,0.508-90.602,12.661c-17.699,7.638-40.621,21.012-59.892,20.539H0V408.195z"/>
		<path style="opacity:0.3;fill:#8AD485;" d="M0.064,402.352c29.348,19.44,66.953,26.399,102.727,31.839
			c5.442,0.827,11.303,2.848,11.47,4.952c-0.393,3.554-27.879,2.297-27.087,4.259c0.454,5.937,37.138,0.197,70.621,10.271
			c33.219,9.995,140.08,36.59,202.4,46.334L0.064,499.994V402.352z"/>
	</g>
	<g>
		<path style="fill:#F7D2A8;" d="M104.501,423.087c10.688,2.99,23.309,5.573,22.419,9.529c-0.396,2.176-16.75,4.259-24.379,5.092
			c-16.764,1.831-64.252,8.479-62.495,23.736c2.215,19.239,126.039,29.92,185.151,32.924c6.212-7.807,11.833-14.66,19.648-20.861
			c-15.736-1.142-177.858-8.847-176.177-18.539c1.254-7.23,65.769-13.648,66.638-19.808
			C135.937,430.685,132.949,426.254,104.501,423.087z"/>
		
			<linearGradient id="SVGID_00000083771608409940789640000004622756194141806757_" gradientUnits="userSpaceOnUse" x1="190.349" y1="469.3512" x2="40.6643" y2="469.3512">
			<stop  offset="0" style="stop-color:#CBA990"/>
			<stop  offset="0.9947" style="stop-color:#F7D2A8;stop-opacity:0"/>
		</linearGradient>
		<path style="fill:url(#SVGID_00000083771608409940789640000004622756194141806757_);" d="M132.855,470.524
			c-3.041-1.301-5.866-3.219-9.112-3.855c-4.561-0.893-9.187,0.875-13.825,1.163c-4.646,0.289-9.241-0.913-13.741-2.104
			c-9.607-2.543-19.264-5.104-28.324-9.187c4.74,7.48,13.531,11.143,21.741,14.462c0.945,0.382,2.054,1.003,2.024,2.022
			c-0.012,0.397-0.209,0.767-0.256,1.162c-0.109,0.928,0.665,1.774,1.549,2.08c0.883,0.307,1.848,0.207,2.779,0.123
			c5.086-0.46,10.223-0.358,15.286,0.305c12.351,1.616,24.462,6.554,36.85,5.251c3.533-0.372,6.99-1.248,10.46-2.009
			c2.063-0.452,15.515-1.71,15.853-3.225c0.748-3.354-9.975-3.578-11.695-3.652C152.621,472.635,142.184,474.514,132.855,470.524z"
			/>
		
			<linearGradient id="SVGID_00000065035477140448630560000008301168837162342333_" gradientUnits="userSpaceOnUse" x1="91.8192" y1="481.5281" x2="63.4206" y2="453.1295">
			<stop  offset="0" style="stop-color:#CBA990"/>
			<stop  offset="0.9947" style="stop-color:#F7D2A8;stop-opacity:0"/>
		</linearGradient>
		<path style="fill:url(#SVGID_00000065035477140448630560000008301168837162342333_);" d="M96.802,469.789
			c-3.255-0.537-6.583,0.151-9.879,0.031c-3.72-0.136-7.396-1.328-10.487-3.402c-2.073-1.39-3.88-3.161-6.02-4.444
			c-1.653-0.991-3.479-1.675-5.111-2.7c-1.632-1.025-3.119-2.5-3.534-4.383c-0.415-1.883,0.61-4.149,2.49-4.575
			c-1.99-1.123-4.836-1.374-6.294,0.386c-1.143,1.38-0.969,3.41-0.517,5.144c0.452,1.734,1.126,3.508,0.78,5.266
			c-0.544,2.761-3.507,4.908-3.105,7.693c3.059,1.427,6.982-0.16,9.893,1.548c2.379,1.397,3.306,4.591,5.769,5.835
			c1.903,0.961,4.177,0.491,6.267,0.073c2.161-0.432,4.38-0.787,6.561-0.47c2.043,0.297,3.95,1.169,5.918,1.793
			c5.668,1.799,12.071,1.485,17.53-0.892c4.285-1.865,1.04-2.512-1.623-3.642C102.605,471.85,99.878,470.296,96.802,469.789z"/>
	</g>
	<g>
		<path style="fill:#429B7D;" d="M64.055,440.69c-0.127,0.023-0.257,0.045-0.392,0.065c-1.572,0.233-2.771,0.199-2.998,2.127
			c-0.095,0.809,0.257,1.603,0.289,2.417c0.07,1.769-1.318,3.203-2.468,4.549c-1.15,1.346-2.186,3.236-1.358,4.8
			c0.272,0.513,0.721,0.923,0.942,1.459c0.322,0.78,0.114,1.712,0.48,2.472c0.533,1.105,2.017,1.355,3.226,1.147
			c1.209-0.209,2.391-0.728,3.611-0.61c1.43,0.139,2.612,1.116,3.831,1.877c1.289,0.804,2.761,1.408,4.28,1.365
			s3.077-0.843,3.711-2.223c0.143-0.312,0.242-0.652,0.462-0.915c0.27-0.323,0.684-0.482,1.085-0.611
			c1.765-0.565,3.699-0.808,5.179-1.923s2.16-3.59,0.734-4.773c-0.329-0.273-0.748-0.461-0.967-0.827
			c-0.582-0.973,0.658-2.066,0.737-3.197c0.097-1.386-1.484-2.212-2.805-2.641c-1.322-0.43-2.916-1.176-2.913-2.566
			c0.001-0.551,0.278-1.106,0.126-1.635c-0.337-1.173-2.826-1.528-3.659-2.521c-1.169-1.394-2.858-3.406-4.861-2.678
			c-1.494,0.543-2.243,1.525-3.033,2.741C66.422,439.931,65.484,440.428,64.055,440.69z"/>
		
			<linearGradient id="SVGID_00000010998204093191421750000015150766437221638054_" gradientUnits="userSpaceOnUse" x1="59.7726" y1="451.9243" x2="80.0623" y2="451.9243">
			<stop  offset="0.0241" style="stop-color:#378D74"/>
			<stop  offset="0.9893" style="stop-color:#429B7D;stop-opacity:0"/>
		</linearGradient>
		<path style="fill:url(#SVGID_00000010998204093191421750000015150766437221638054_);" d="M71.021,443.426
			c-0.721,0.201-1.262,0.779-1.807,1.293c-0.545,0.513-1.207,1.009-1.955,0.974c-0.413-0.02-0.863-0.195-1.215,0.022
			c-0.484,0.299-0.346,1.015-0.327,1.583c0.04,1.19-0.728,2.27-1.642,3.034c-0.914,0.764-1.992,1.309-2.915,2.063
			c-0.634,0.518-1.214,1.177-1.36,1.982c-0.146,0.805,0.289,1.755,1.085,1.943c0.902,0.212,1.923-0.561,2.721-0.09
			c0.484,0.285,0.635,0.897,0.824,1.426c0.19,0.529,0.586,1.105,1.146,1.067c0.329-0.023,0.599-0.257,0.892-0.41
			c1.281-0.67,2.78,0.245,3.971,1.064c1.191,0.819,2.855,1.565,3.975,0.652c0.689-0.562,0.851-1.539,0.888-2.427
			c0.036-0.868,0.159-1.968,0.991-2.219c0.324-0.097,0.67-0.024,1.007-0.012c1.128,0.04,2.242-0.692,2.652-1.743
			c0.095-0.243,0.154-0.517,0.065-0.762c-0.265-0.731-1.411-0.519-2.011-1.014c-0.651-0.537-0.369-1.577-0.02-2.345
			c0.349-0.768,0.669-1.784,0.052-2.361c-0.503-0.47-1.3-0.312-1.975-0.171c-0.674,0.141-1.53,0.157-1.88-0.436
			c-0.261-0.443-0.094-1.008-0.175-1.515C73.882,444.218,71.718,443.232,71.021,443.426z"/>
		<path style="fill:#6E604A;" d="M73.956,454.932c0.071-0.075-0.019-0.197-0.111-0.144c-1.738,0.988-3.698,2.753-4.659,4.744
			c0.066-3.589,0.567-7.098,1.34-10.698c0.068-0.317-0.417-0.572-0.559-0.236c-0.74,1.746-1.224,3.564-1.53,5.415
			c-0.045-1.026-0.44-2.079-0.76-3.016c-0.498-1.458-1.082-2.988-1.989-4.239c-0.179-0.248-0.659-0.112-0.537,0.226
			c0.515,1.434,1.21,2.79,1.673,4.248c0.401,1.265,0.508,2.742,1.251,3.854c0.049,0.073,0.137,0.067,0.201,0.022
			c-0.306,2.424-0.326,4.895-0.183,7.336c0.294,5.012,0.894,10.728,2.778,15.393c0.093,0.231,0.479,0.228,0.469-0.063
			c-0.156-4.664-1.623-9.264-2.02-13.93c-0.076-0.886-0.111-1.76-0.129-2.63c0.789-0.986,1.327-2.178,2.112-3.18
			C72.137,456.967,73.031,455.92,73.956,454.932z"/>
	</g>
	<path style="fill:#1F7689;" d="M239.988,470.785c2.779-1.894-3.973-5.765-7.331-5.945c-3.358-0.18-6.06,0.797-7.272,3.933
		c-1.947-2.562-6.645-2.034-7.975,0.895c-0.219-1.175-0.641-2.362-1.503-3.189c-0.862-0.827-2.248-1.192-3.29-0.607
		c-1.042,0.585-2.436,2.756-1.523,3.526c-0.406-2.288-1.114-4.522-2.1-6.627c-0.835-1.782-2.461-3.735-4.358-3.21
		c-0.933,0.258-1.595,1.063-2.193,1.824c-2.258,2.874-5.135,6.677-4.693,10.305c-0.986-0.709-1.621-1.885-1.67-3.099
		c-4.119,0.146-8.134,2.181-10.685,5.418c-0.667-2.045-2.805-3.356-4.946-3.569c-2.141-0.213-4.272,0.491-6.213,1.419
		c-3.467,1.656-6.693,4.218-8.162,7.769c-0.167,0.404-0.311,0.858-0.163,1.27C165.911,480.897,217.364,486.208,239.988,470.785z"/>
	<path style="fill:#1F7689;" d="M0,439.802c2.362-2.59,7.882-1.926,10.71,0.374s6.803,20.494,8.062,26.376
		c3.13-3.991,8.025-10.482,14.046-8.421c3.674,0.596,1.696,7.538,1.284,11.336c4.329-4.116,12.683-4.721,14.52-1.638
		c1.837,3.083,0.522,6.674-0.813,9.904c1.093-2.935,7.23-6.546,11.403-5.82c3.78,0.658,3.905,6.965,2.112,9.455
		c1.968-3.662,2.831-8.105,8.389-8.501c4.529-0.322,8.142,1.844,9.962,5.243c-0.267-2.572,1.169-6.561,4.645-7.023
		c10.743-1.22,16.029,16.121,25.853,28.917H0V439.802z"/>
	<path style="fill:#469B60;" d="M0,493.868c30.711-5.263,59.006-11.462,89.717-16.725c10.625-1.821,21.298-3.647,32.076-3.879
		c32.341-0.698,65.508,12.833,96.288,2.881c21.119-6.828,37.775-23.907,58.962-30.524c9.105-2.844,18.704-3.638,28.211-4.415
		c12.533-1.024,25.066-2.048,37.599-3.072c24.985-2.041,47.323-8.629,69.596-20.133c5.922-3.059,11.86-6.539,18.479-7.32
		c5.02-0.593,10.165,0.414,15.131-0.53c5.794-1.101,10.747-4.727,16.188-7.006c12.388-5.19,24.995-3.597,37.754-7.795v104.646H0
		V493.868z"/>
	<g>
		<path style="fill:#88D180;" d="M500,405.685v94.31H0c42.29-9.47,103.64-20.71,148.53-21.65c14.56-0.3,29.2,0.31,43.66-0.8
			c39.01-2.99,72.51-17.95,106.5-30.3c24.51-8.89,50.1-16.62,76.49-23.08c12.03-2.94,24.33-5.64,37.14-6.68
			c8.86-0.72,17.91-0.64,26.58-1.98c11.24-1.74,21.27-5.78,32.43-7.69C490.08,404.625,493.65,405.685,500,405.685z"/>
		
			<linearGradient id="SVGID_00000080203562980892334200000001377957115653177220_" gradientUnits="userSpaceOnUse" x1="287.55" y1="554" x2="287.55" y2="391.4532">
			<stop  offset="0" style="stop-color:#A7EB8C"/>
			<stop  offset="1" style="stop-color:#88D180;stop-opacity:0"/>
		</linearGradient>
		<path style="fill:url(#SVGID_00000080203562980892334200000001377957115653177220_);" d="M308.4,491.375
			c46.29-10.19,90.41-32.16,137.79-33.4c7.5,4.11-21.78,16.77-12.28,26.66c1.44,1.51,27.56-9.36,39.56-12.66
			c16.35-4.48,19.78-8.3,26.53-0.79v28.81l-424.9,0.01c0.02,0,0.03-0.01,0.05-0.01c23.28-4.61,50.58-5.25,73.85-9.86
			c7.42-1.47,14.98-2.95,22.5-2.12c9.59,1.05,18.59,5.8,28.23,6.1c7.51,0.23,14.82-2.25,21.92-4.71c14.48-5,28.96-10,43.43-15
			c25.63-8.85,51.37-17.76,75.31-30.49c8.04-4.28,16.19-9.08,25.27-9.86c5.44-0.46,10.89,0.57,16.32,1.08
			c22.26,2.07,44.36-4.65,65.34-12.37c13.4-4.94,30.27-14.09,52.68-14.57v4.68c-21.66,6.18-30.51,22.27-41.4,21.52
			c-57.33-3.96-88.73,24.23-131.35,41.41C319.41,478.975,304.94,489.785,308.4,491.375z"/>
	</g>
	<path style="fill:#47A269;" d="M287.55,475.234c0,0,9.876,14.813,15.363,24.766h0.705C303.618,500,295.383,481.017,287.55,475.234z
		"/>
	<path style="fill:#1B3D28;" d="M373.245,452.924c0,0-19.555,28.068-30.667,47.076l-1.245-0.09
		C341.333,499.91,358.592,463.372,373.245,452.924z"/>
	<path style="fill:#47A269;" d="M295.584,475.995c0,0,8.269,21.43,9.053,24.005h0.706C305.343,500,298.524,479.387,295.584,475.995z
		"/>
	<path style="fill:#1B3D28;" d="M356.96,452.755c0,0-12.911,42.177-14.135,47.244h-1.101
		C341.724,500,352.371,459.431,356.96,452.755z"/>
	<path style="fill:#47A269;" d="M361.959,475.995c0,0-4.872,5.576-10.277,24.005h-0.981
		C350.701,500,356.452,479.989,361.959,475.995z"/>
	<path style="fill:#47A269;" d="M491.122,475.995c0,0-6.845,5.576-13.001,24.005h-1.51C476.611,500,483.114,479.989,491.122,475.995
		z"/>
	<path style="fill:#1B3D28;" d="M322.822,437.066c0,0-15.591,58.868-16.825,62.941h1.507
		C307.504,500.007,323.086,445.483,322.822,437.066z"/>
	<path style="fill:#265739;" d="M315.948,424.996c0,0,13.675,51.976,21.61,75.004h0.94C338.498,500,323.493,442.509,315.948,424.996
		z"/>
	<path style="fill:#265739;" d="M321.725,500c0,0-3.998-30.096-7.838-40.548c0,0,6.114,11.767,8.936,40.548H321.725z"/>
	<path style="fill:#265739;" d="M322.979,500c0,0-3.59-45.547-7.29-61.365c0,0,5.955,17.808,8.387,61.365H322.979z"/>
	<path style="fill:#265739;" d="M338.438,500.304c0,0-5.201-49.77-10.56-67.055c0,0,8.626,19.459,12.15,67.055H338.438z"/>
	<path style="fill:#47A269;" d="M304.01,454.745c0,0,23.213,22.627,29.942,45.255h-2.038
		C331.915,500,328.309,484.094,304.01,454.745z"/>
	<path style="fill:#47A269;" d="M361.61,449.492c0,0-9.966,44.57-10.629,50.508h-1.437C349.544,500,354.489,467.152,361.61,449.492z
		"/>
	<path style="fill:#1B3D28;" d="M499.315,452.924c0,0-19.555,28.068-30.667,47.076l-1.245-0.09
		C467.403,499.91,484.662,463.372,499.315,452.924z"/>
	<path style="fill:#1B3D28;" d="M483.03,452.755c0,0-12.911,42.177-14.135,47.244h-1.101
		C467.794,500,478.441,459.431,483.03,452.755z"/>
	<path style="fill:#47A269;" d="M487.68,449.492c0,0-9.966,44.57-10.629,50.508h-1.437C475.614,500,480.559,467.152,487.68,449.492z
		"/>
	<path style="fill:#265739;" d="M344.577,466.776c0,0-1.582,27.495-2.769,33.231h-1.78
		C340.028,500.007,342.797,476.073,344.577,466.776z"/>
	<path style="fill:#47A269;" d="M297.034,422.628c0,0,30.805,53.616,47.735,77.372h1.646
		C346.416,500,312.554,440.694,297.034,422.628z"/>
	<path style="fill:#47A269;" d="M336.059,429.641c0,0,8.218,63.725,8.967,70.359h1.582C346.608,500,341.569,450.347,336.059,429.641
		z"/>
	<path style="fill:#1B3D28;" d="M470.009,424.996c0,0-13.675,51.976-21.61,75.004h-0.94
		C447.459,500,462.464,442.509,470.009,424.996z"/>
	<path style="fill:#265739;" d="M464.232,500c0,0,3.997-30.096,7.838-40.548c0,0-6.114,11.767-8.936,40.548H464.232z"/>
	<path style="fill:#265739;" d="M462.978,500c0,0,3.59-45.547,7.29-61.365c0,0-5.955,17.808-8.387,61.365H462.978z"/>
	<path style="fill:#1B3D28;" d="M443.983,500c0,0,10.741-42.703,18.023-57.534c0,0-10.792,16.696-19.613,57.534H443.983z"/>
	<path style="fill:#265739;" d="M488.923,422.628c0,0-30.805,53.616-47.735,77.372h-1.646
		C439.542,500,473.403,440.694,488.923,422.628z"/>
	<path style="fill:#47A269;" d="M449.898,429.641c0,0-8.218,63.725-8.967,70.359h-1.582
		C439.349,500,444.389,450.347,449.898,429.641z"/>
	<path style="fill:#1B3D28;" d="M442.765,479.856c0,0-8.456,12.049-12.989,20.145h-0.705
		C429.071,500.001,435.487,484.56,442.765,479.856z"/>
	<path style="fill:#1B3D28;" d="M366.868,461.709c0,0,22.246,22.831,35.18,38.293l1.236-0.074
		C403.284,499.928,382.522,470.208,366.868,461.709z"/>
	<path style="fill:#1B3D28;" d="M434.804,480.476c0,0-6.215,17.431-6.752,19.526h-0.705
		C427.347,500.002,432.19,483.235,434.804,480.476z"/>
	<path style="fill:#1B3D28;" d="M383.862,461.572c0,0,16.954,34.307,18.664,38.429h1.101
		C403.627,500.001,389.091,467.002,383.862,461.572z"/>
	<path style="fill:#265739;" d="M360.813,480.475c0,0,5.407,4.536,12.578,19.526h0.981
		C374.373,500.001,366.703,483.724,360.813,480.475z"/>
	<path style="fill:#1B3D28;" d="M418.344,438.991c0,0-8.692,42.278-14.419,61.01h-0.94
		C402.985,500.001,412.479,453.237,418.344,438.991z"/>
	<path style="fill:#1B3D28;" d="M423.626,500.001c0,0,1.112-24.481,3.951-32.982c0,0-4.986,9.572-5.048,32.982H423.626z"/>
	<path style="fill:#1B3D28;" d="M422.372,500.001c0,0-0.776-37.049,1.406-49.915c0,0-4.247,14.486-2.504,49.915H422.372z"/>
	<path style="fill:#1B3D28;" d="M403.353,500.001c0,0,0.429-40.484,4.131-54.544c0,0-6.76,15.829-5.721,54.544H403.353z"/>
	<path style="fill:#265739;" d="M431.496,463.19c0,0-21.044,18.405-25.604,36.811h2.038
		C407.93,500.001,410.011,487.063,431.496,463.19z"/>
	<path style="fill:#265739;" d="M362.943,458.918c0,0,14.239,36.254,15.471,41.084h1.437
		C379.851,500.001,371.757,473.283,362.943,458.918z"/>
	<path style="fill:#265739;" d="M405.704,437.066c0,0-12.515,43.612-21.342,62.935h-1.646
		C382.716,500.001,396.347,451.761,405.704,437.066z"/>
	<path style="fill:#47A269;" d="M369.495,442.77c0,0-2.108,51.835-2.222,57.231h-1.582
		C365.691,500.001,365.97,459.613,369.495,442.77z"/>
	<path style="fill:#47A269;" d="M378.899,458.918c0,0,9.474,36.254,10.072,41.084h1.437
		C390.408,500.001,385.825,473.283,378.899,458.918z"/>
	<path style="fill:#47A269;" d="M392.739,464.066c0,0,4.218,29.737,5.955,35.941h1.78
		C400.474,500.007,395.411,474.121,392.739,464.066z"/>
	<path style="fill:#47A269;" d="M397.995,479.856c0,0,7.214,12.049,10.912,20.145h0.705
		C409.612,500.001,404.789,484.56,397.995,479.856z"/>
	<path style="fill:#47A269;" d="M461.985,479.856c0,0,7.214,12.049,10.912,20.145h0.705
		C473.602,500.001,468.779,484.56,461.985,479.856z"/>
	<path style="fill:#47A269;" d="M405.892,480.476c0,0,4.418,17.431,4.739,19.526h0.705
		C411.336,500.002,408.222,483.235,405.892,480.476z"/>
	<path style="fill:#47A269;" d="M468.786,480.476c0,0,4.418,17.431,4.739,19.526h0.706
		C474.231,500.002,471.116,483.235,468.786,480.476z"/>
	<path style="fill:#F7FAF3;" d="M391.564,321.441c1.115-1.822-0.309-4.16-3.009-4.935c-2.699-0.775-6.985-1.311-8.18,0.488
		c1.765-2.799-2.21-6.398-6.714-6.079c-3.087,0.218-5.441,1.644-7.566,3.162c1.12-4.533-1.455-14.812-11.405-15.693
		c-16.354-1.448-26.158,10.232-25.194,17.592c-0.762-2.368-2.701-5.345-6.287-5.062c-1.479,0.117-2.704,0.818-3.689,1.567
		c-2.153,1.639-4.828,3.733-5.437,5.879c-2.21-2.151-6.21-3.411-10.088-3.178c-3.878,0.233-5.576,3.095-7.18,5.475
		c-19.921,1.956-40.065,2.823-61.731,2.691c-1.41,2.253,16.443,1.971,25.859,1.589c27.292-1.107,173.723,0,171.943-2.323
		C432.885,321.092,410.336,322.614,391.564,321.441z"/>
	<g>
		<path style="fill:#378D74;" d="M491.531,280.688c-0.776,0.368-1.547,0.853-2.406,0.848c-1.513-0.009-2.556-1.48-3.26-2.82
			c-1.117-2.127-2.064-4.345-2.826-6.623c-2.134-0.456-4.866,0.064-6.751,1.165c-2.277-0.926-1.941-4.271-3.215-6.373
			c-1.195-1.972-3.847-2.659-6.105-2.192c-2.258,0.467-4.204,1.853-6.026,3.267c-0.738,0.572-1.494,1.169-2.395,1.414
			c-2.374,0.648-4.608-1.294-6.265-3.113c-1.657-1.819-3.731-3.857-6.158-3.451c-2.393,0.4-4.887,3.482-5.825,5.72
			c-2.735-2.337-6.645-3.22-10.118-2.285c-0.575,0.155-1.168,0.376-1.544,0.838c-0.447,0.55-0.492,1.313-0.516,2.021
			c-0.061,1.755-1.683,5.111-1.744,6.866c-3.713,0.504-7.481,1.655-10.246,4.184c-2.765,2.529-4.28,6.676-2.908,10.163
			c1.201,3.051,4.391,6.258,2.54,8.964c-0.441,0.644-1.119,1.1-1.548,1.752c-1.504,2.286,0.713,5.146,2.757,6.965
			c-2.388,0.697-4.841,1.427-6.791,2.972c-1.95,1.545-3.297,4.121-2.664,6.526c-3.087-0.802-6.264-1.252-9.452-1.337
			c-3.709-0.1-7.652,0.378-10.58,2.657s-4.325,6.826-2.15,9.833c-4.335-0.13-8.699,0.811-12.596,2.716
			c-3.478,1.7-6.961,5.312-5.63,8.947c0.336,0.918,0.96,1.728,1.155,2.686c0.722,3.544-4.372,5.546-5.333,9.032
			c-0.839,3.045,1.887,6.044,4.869,7.085c2.982,1.041,6.25,0.826,9.342,1.47c1.023,0.213,2.079,0.553,2.781,1.326
			c1.156,1.272,0.979,3.21,1.175,4.918c0.407,3.56,2.882,6.808,6.207,8.144c3.325,1.336,7.359,0.704,10.116-1.585
			c1.643-1.364,3.105-0.605,4.123,1.272c1.018,1.876,1.531,4.175,3.26,5.428c1.044,0.756,2.445,0.994,3.68,0.624
			c2.338-0.701,4.292-3.403,6.598-2.605c0.805,0.278,1.401,0.946,2.101,1.431c1.993,1.38,4.733,1.176,6.957,0.212
			c2.224-0.964,4.088-2.578,6.056-3.993c1.616-1.161,3.703-2.233,5.51-1.399c0.719,0.332,1.286,0.932,1.998,1.28
			c2.327,1.137,4.936-0.751,6.835-2.512c1.287-1.194,4.254-0.826,5.448,0.46c1.194,1.286,2.067,2.947,3.608,3.787
			c2.7,1.472,5.969-0.212,8.585-1.827c2.616-1.615,5.959-3.219,8.588-1.625c1.861,1.129,2.572,3.453,4.01,5.087
			c2.244,2.55,6.449,3.07,9.247,1.144c1.255-0.864,2.198-2.113,3.417-3.027c2.613-1.959,9.826-1.684,12.558,0.107v-95.835
			C497.945,280.927,493.435,279.784,491.531,280.688z"/>
		
			<linearGradient id="SVGID_00000102518189314093129910000016442839593228399547_" gradientUnits="userSpaceOnUse" x1="383.0402" y1="331.2187" x2="448.2756" y2="331.2187">
			<stop  offset="0.0241" style="stop-color:#3B967B"/>
			<stop  offset="0.9893" style="stop-color:#378D74;stop-opacity:0"/>
		</linearGradient>
		<path style="fill:url(#SVGID_00000102518189314093129910000016442839593228399547_);" d="M430.034,297.536
			c0.283,2.209,1.012,4.436,0.556,6.616c-0.688,3.288-3.846,5.443-6.946,6.739c-3.099,1.296-6.499,2.153-9.01,4.384
			c-1.054,0.936-1.95,2.201-1.948,3.611c0.003,1.888,1.572,3.424,1.924,5.278c0.39,2.06-0.838,4.161-2.54,5.386
			c-1.701,1.224-3.801,1.739-5.854,2.161c-7.232,1.487-14.766,2.198-21.391,5.456c-0.708,0.348-1.462,0.793-1.706,1.542
			c-0.41,1.259,0.863,2.442,2.102,2.909c1.239,0.467,2.686,0.682,3.524,1.707c-0.683,1.617-2.288,2.608-3.511,3.867
			c-1.223,1.258-2.077,3.337-0.98,4.707c0.776,0.969,2.179,1.13,3.212,1.818c1.789,1.192,2.125,3.697,1.838,5.827
			s-1.019,4.253-0.702,6.379c0.081,0.544,0.248,1.108,0.651,1.483c0.399,0.372,0.97,0.502,1.515,0.506
			c2.339,0.016,4.154-1.902,6.015-3.319c1.862-1.417,4.807-2.296,6.326-0.517c0.663,0.776,0.83,1.843,1.066,2.835
			c0.363,1.522,0.995,3.058,2.207,4.048c1.212,0.99,3.119,1.253,4.324,0.254c0.959-0.795,1.256-2.135,2.016-3.122
			c1.046-1.357,3.027-1.9,4.618-1.265c1.826,0.728,3.333,2.821,5.234,2.321c2.143-0.564,2.089-3.541,2.164-5.756
			c0.1-2.994,1.361-5.934,3.46-8.071c0.273-0.278,0.575-0.552,0.951-0.655c0.911-0.251,1.728,0.558,2.424,1.198
			c2.251,2.07,5.52,2.976,8.515,2.359c0.786-2.74-0.095-5.889-2.188-7.823c1.339-0.637,0.728-2.833-0.564-3.563
			c-1.291-0.729-2.893-0.686-4.232-1.325c-1.513-0.722-2.549-2.351-2.561-4.028c-0.015-2.053,1.38-3.884,3.046-5.083
			c1.666-1.2,3.619-1.926,5.422-2.909c2.809-1.531,5.264-3.706,7.124-6.31c1.747-2.446,2.955-5.784,1.477-8.401
			c-0.556-0.985-1.464-1.803-1.71-2.907c-0.462-2.07,1.589-3.975,1.473-6.093c-0.192-3.488-4.699-4.089-6.517-6.394
			c-2.157-2.734-0.131-5.681-0.469-8.808C439.634,287.617,429.136,290.53,430.034,297.536z"/>
		
			<linearGradient id="SVGID_00000010295124964190577030000016994206244721067199_" gradientUnits="userSpaceOnUse" x1="450.9352" y1="375.1869" x2="450.9352" y2="237.5146">
			<stop  offset="0.0241" style="stop-color:#3B967B"/>
			<stop  offset="0.9893" style="stop-color:#378D74;stop-opacity:0"/>
		</linearGradient>
		<path style="fill:url(#SVGID_00000010295124964190577030000016994206244721067199_);" d="M500,337.67
			c-1.668-2.716-4.715-4.829-7.874-4.403c-4.058,0.547-7.049,3.898-9.971,6.767c-2.921,2.869-6.837,5.622-10.792,4.562
			c-4.031-1.08-6.883-5.891-11.023-5.367c-1.91,0.242-3.448,1.608-5.039,2.692c-3.17,2.161-6.988,3.357-10.824,3.391
			c-1.318,0.012-2.739-0.153-3.719-1.034c-2.012-1.81-0.699-5.425,1.67-6.733c2.369-1.307,5.237-1.112,7.94-1.247
			c2.703-0.135,5.728-0.864,7.084-3.206c1.66-2.867-0.039-6.462-1.874-9.22c-1.835-2.758-3.933-5.947-2.982-9.12
			c0.149-0.499,0.405-1.01,0.871-1.243c0.529-0.265,1.164-0.097,1.72,0.103c3.479,1.251,6.449,3.57,9.503,5.654
			c3.054,2.084,6.399,4.012,10.086,4.296c3.687,0.284,7.767-1.526,9.036-4.999c0.512-1.402,0.602-3.068,1.699-4.081
			c1.986-1.834,5.121,0.005,7.094,1.853c1.973,1.848,5.251,3.399,7.397,1.754v-27.099c-6.075-1.381-14.275,3.698-18.226,8.515
			c-1.807,2.204-3.489,4.591-5.85,6.188c-2.361,1.597-5.654,2.227-8.033,0.658c-3.34-2.203-4.173-8.022-8.168-8.253
			c-3.837-0.222-6.856,5.44-10.368,3.88c-2.675-1.189-2.043-5.394,0.059-7.43c2.103-2.037,5.088-3.053,6.966-5.299
			c0.344-1.545-1.305-2.782-2.806-3.286c-1.5-0.504-3.277-0.888-4.01-2.291c-0.46-0.879-0.365-1.93-0.289-2.919
			c0.157-2.047,0.162-4.209-0.805-6.02c-0.967-1.811-3.201-3.096-5.115-2.352c-2.204,0.857-2.797,3.72-2.567,6.073
			s0.934,4.81,0.079,7.015c-2.459,1.72-5.754,1.315-8.709,1.839c-2.955,0.524-6.178,3.2-5.064,5.986
			c0.82,2.051,3.37,2.612,5.416,3.444c2.046,0.832,4.081,3.243,2.754,5.008c-0.345,0.459-0.859,0.756-1.271,1.156
			c-1.76,1.708-1.147,4.791,0.438,6.662c1.585,1.871,3.869,2.985,5.768,4.537c1.899,1.552,3.508,3.953,2.896,6.328
			c-0.626,2.428-3.361,3.767-5.868,3.81c-2.507,0.043-4.917-0.864-7.369-1.389c-3.569-0.764-7.311-0.713-10.858,0.148
			c0.868,3.168,3.172,5.706,4.856,8.526c1.684,2.82,2.722,6.53,0.954,9.299c-5.85-0.363-11.7-0.725-17.55-1.088
			c-2.184-0.135-5.118,0.311-5.371,2.484c-0.465,3.998,8.349,3.091,8.532,7.112c0.154,3.371-6.455,4.66-5.331,7.842
			c2.123,1.767,5.305,0.515,7.739-0.791c3.399-1.825,6.799-3.649,10.198-5.474c0.261,3.292,0.564,6.719,2.27,9.546
			c1.706,2.827,5.272,4.827,8.358,3.652c2.935-1.117,4.585-4.661,7.66-5.301c6.064-1.261,9.522,9.459,15.624,8.397
			c2.263-0.394,3.855-2.348,5.546-3.902c1.692-1.553,4.229-2.83,6.197-1.645c1.635,0.985,2.003,3.139,2.854,4.847
			c0.851,1.709,3.3,3.097,4.531,1.638c0.291-0.344,0.438-0.784,0.585-1.21c1.516-4.384,3.747-8.521,6.578-12.196
			c0.619-0.804,1.311-1.619,2.259-1.979c1.835-0.698,3.797,0.527,5.746,0.763c1.949,0.236,4.331-2.063,2.854-3.357
			c-0.931-1.412-1.334-3.687,5.91-2.204C499.656,344.261,499.65,341.365,500,337.67z"/>
		<g>
			<path style="fill:#6E604A;" d="M449.01,393.535c-0.231,1.301-0.419,2.607-0.677,3.903c-0.555,2.782-1.313,5.673-2.819,8.078
				c0.135-2.638-0.676-5.544-0.54-8.182c0.141-2.753,0.287-5.534,1.048-8.184c0.669-2.329,1.796-4.5,2.575-6.795
				c1.457-4.296,1.875-9.415,0.769-13.814c-0.266,3.618-0.911,7.209-1.921,10.694c-1.664,5.739-4.339,11.337-4.336,17.312
				c0.002,3.421-0.46,9.446-0.857,12.844c-0.555,4.753-2.543,6.763-2.83,11.503c-0.019-11.74,0.126-23.116-1.358-34.762
				c-0.299-2.347-2.084-12.331,1.846-16.879c3.977-4.601-2.048-12.09-0.923-18.066c0.884-4.698,3.462-4.45,4.547-9.106
				c0.858-3.68,0.386-7.517,0.235-11.292c-0.231-5.778,0.128-10.358,1.416-15.996c-3.435,3.452-3.687,8.9-3.283,13.753
				c0.404,4.853,1.207,9.971-0.783,14.415c-1.089,2.431-2.956,4.486-3.8,7.013c-1.647,4.932,0.951,10.287,0.506,15.467
				c-0.22,2.564-1.182,5.002-1.688,7.526c-1.011,5.039-1.191,9.56-0.579,14.662c1.776,14.796,2.727,30.49,0.84,45.272
				c-0.426,3.337-0.946,6.682-0.858,10.046c0.069,2.647,0.515,5.267,0.903,7.886c2.224,15.012,2.587,30.291,1.22,45.406l4.107-0.032
				c0.056-8.201,0.109-15.836,0.165-24.037c0.022-3.195,0.043-6.401-0.336-9.574c-0.323-2.699-0.934-5.354-1.419-8.029
				c-2.829-15.605-1.149-32.386,6.845-46.083c0.785-1.345,1.636-2.676,2.086-4.168c0.349-1.156,0.444-2.37,0.606-3.566
				c0.775-5.713,1.137-12.839,6.815-15.652C453.055,385.641,449.836,388.886,449.01,393.535z"/>
		</g>
		<path style="fill:#429B7D;" d="M453.921,357.97c-2.107-1.026-3.867-2.881-6.266-2.992c-3.568-0.165-5.751,3.496-9.041,4.732
			c-1.12,0.421-2.437,0.591-3.251,1.394c-1.443,1.425-0.309,3.735,1.231,5.077c1.54,1.342,3.552,2.5,4.056,4.364
			c-3.364-0.287-5.764,4.068-3.447,6.255c-1.733,0.072-3.595,0.185-4.944,1.155c-1.348,0.97-1.701,3.132-0.23,3.949
			c1.172,0.651,2.915,0.185,3.915,1.034c1.737,1.476-1.046,4.595,0.698,6.064c1.237,1.041,3.36,0.013,4.943,0.573
			c3.009,1.064,2.034,6.717,5.267,6.555c1.508-0.076,2.382-1.628,3.812-2.058c1.824-0.549,3.568,0.865,4.988,2.021
			c1.42,1.156,3.733,2.151,5.103,0.949c0.518-0.455,0.728-1.116,1.153-1.642c1.232-1.527,3.842-1.483,5.814-0.803
			c1.971,0.679,3.779,1.833,5.879,2.049c0.488,0.05,1.014,0.04,1.428-0.195c1.016-0.576,0.699-1.941,1.037-2.969
			c0.802-2.439,4.699-2.271,7.491-1.724c2.792,0.547,6.848,0.144,6.982-2.394c0.086-1.637-1.78-2.992-1.637-4.626
			c0.28-3.192,6.937-2.824,7.819-5.929c1.012-3.562-6.726-4.928-6.623-8.601c0.049-1.762,2.003-3.575,0.91-5.046
			c-1.195-1.608-4.171-0.368-6.124-1.208c-2.6-1.118-2.229-5.33-5.035-5.934c-2.457-0.529-4.678,2.475-7.079,1.772
			c-1.489-0.436-2.023-2.026-3.048-3.081c-2.445-2.516-5.101-0.774-7.443,0.424C459.431,358.592,457.487,359.706,453.921,357.97z"/>
		
			<linearGradient id="SVGID_00000012452997366254508640000013778320517426979484_" gradientUnits="userSpaceOnUse" x1="491.2344" y1="346.0451" x2="446.3333" y2="394.3088">
			<stop  offset="0.0241" style="stop-color:#378D74"/>
			<stop  offset="0.9893" style="stop-color:#429B7D;stop-opacity:0"/>
		</linearGradient>
		<path style="fill:url(#SVGID_00000012452997366254508640000013778320517426979484_);" d="M447.016,374.251
			c1.679,1.93,3.531,4.533,2.346,6.8c-0.81,1.548-2.698,2.131-4.032,3.258c-1.335,1.127-1.727,3.807-0.034,4.236
			c0.559,0.142,1.148-0.046,1.674-0.283c1.546-0.695,2.869-1.809,4.389-2.561c1.519-0.752,3.419-1.098,4.864-0.211
			c1.488,0.914,2.011,2.792,3.061,4.188c2.035,2.706,6.401,3.243,9.03,1.11c1.29-1.046,2.112-2.548,3.185-3.816
			c3.793-4.482,10.155-5.566,15.337-8.328c0.393-0.21,0.794-0.442,1.046-0.809c0.828-1.21-0.488-2.795-1.846-3.349
			c-1.357-0.554-3.01-0.815-3.787-2.058c-0.922-1.476-0.045-3.413-0.321-5.132c-0.346-2.155-2.837-3.685-4.916-3.02
			c-2.843,0.91-4.554,5.017-7.468,4.366c-2.348-0.525-2.81-3.633-4.319-5.508c-1.717-2.133-5.244-2.335-7.337-0.652
			c-2.129,1.712-1.616,4.998-4.737,4.921c-2.327-0.058-3.917-2.357-6.507-1.162C442.944,367.949,445.068,372.013,447.016,374.251z"
			/>
		<path style="fill:#6E604A;" d="M439.349,348.253c0.461-2.077,5.017-4.731,6.936-5.604c1.919-0.873,3.92-2.048,4.664-4.02
			c0.483-1.281,0.353-2.709,0.082-4.051c-0.287-1.419-0.711-2.958-0.073-4.258c0.356-0.726,1-1.265,1.641-1.758
			c1.772-1.364,3.669-2.565,5.66-3.583c-1.112,1.069-2.008,1.732-3.119,2.801c-0.706,0.678-2.266,1.285-2.736,2.143
			c-1.779,3.243,1.117,7.038-0.824,10.187c-1.057,1.715-2.999,2.378-4.879,3.099C444.594,344.017,441.455,347.445,439.349,348.253z"
			/>
		<path style="fill:#6E604A;" d="M430.151,328.736c1.451,1.615,4.559,1.444,6.403,1.738c0.624,0.099,1.26,0.167,1.853,0.385
			c1.273,0.468,2.207,1.579,2.871,2.762c0.962,1.714,1.813,3.93,1.828,5.895c0.191,2.349-0.611,1.866-0.824,0.725
			c-0.41-2.186-2.934-7.813-4.055-8.505c-1.127-0.696-3.754-0.526-5.107-0.672c-1.353-0.147-2.749-0.598-3.642-1.625
			c-0.708-0.815-3.37-6.621-4.293-8.529C426.009,321.323,429.837,328.386,430.151,328.736z"/>
	</g>
	<g>
		<path style="fill:#B5AB99;" d="M441.721,492.82c-1.577,0.029-3.089,0.578-4.623,0.942c-4.825,1.145-9.873,0.448-14.827,0.666
			c-4.954,0.218-6.749,1.46-9.526,5.569l40.22,0.003C450.758,496.192,446.122,492.74,441.721,492.82z"/>
		<path style="fill:#A59C8B;" d="M446.903,496.494c-0.447-0.36-0.951-0.719-1.524-0.726c-0.768-0.01-1.494,0.617-2.236,0.42
			c-0.805-0.214-1.071-1.223-1.706-1.762c-1.043-0.886-2.647-0.246-3.758,0.553c-1.111,0.799-2.342,1.792-3.679,1.5
			c-0.426-0.093-0.813-0.314-1.228-0.451c-0.755-0.249-1.573-0.21-2.363-0.121c-1.357,0.154-2.698,0.449-3.995,0.879
			c-1.049,0.348-2.241,0.776-3.205,0.235c-0.251-0.141-0.471-0.343-0.743-0.434c-0.375-0.126-0.791-0.046-1.165,0.085
			c-3.941,1.382-6.381-0.102-7.996,3.327l37.034-0.043C449.326,498.68,448.171,497.516,446.903,496.494z"/>
	</g>
	<g>
		<path style="fill:#378D74;" d="M27.656,424.826c-0.986,0.568-2.199,0.906-3.189,1.5c-4.24,2.544-2.746,7.114-0.531,10.355
			c0.696,1.018,1.174,2.497,0.333,3.399c-0.31,0.332-0.744,0.512-1.122,0.763c-1.845,1.222-3.421,4.251-1.771,6.076
			c0.313,0.347,0.716,0.625,0.93,1.04c0.626,1.217-0.69,2.512-0.963,3.854c-0.367,1.8,1.736,3.578,3.45,2.918
			c0.844-0.325,1.499-1.085,2.385-1.262c2.125-0.424,3.382,2.544,5.472,3.116c2.499,0.684,4.523-2.237,7.063-2.746
			c2.253-0.452,4.369,1.051,6.325,2.256c1.957,1.205,4.613,2.137,6.419,0.716c1.843-1.45,2.165-4.917,4.506-5.059
			c0.96-0.058,1.834,0.557,2.789,0.668c1.829,0.213,3.431-1.595,3.542-3.433c0.112-1.838-0.894-3.571-2.127-4.939
			c-0.864-0.958-1.911-1.909-2.077-3.189c-0.135-1.045,0.359-2.055,0.816-3.004c0.618-1.283,1.202-2.623,1.28-4.045
			c0.078-1.422-0.446-2.956-1.639-3.734c-0.494-0.322-1.085-0.508-1.499-0.928c-1.475-1.497,0.44-4.326-0.762-6.05
			c-1.157-1.661-3.913-0.715-5.638-1.776c-1.382-0.849-1.682-2.678-2.357-4.153c-1.106-2.418-4.169-4.181-6.482-2.868
			c-0.93,0.528-1.626,1.477-2.654,1.771c-1.348,0.385-2.691-0.477-3.992-0.997c-2.502-0.998-6.032-0.268-6.779,2.319
			c-0.57,1.973,0.678,4.267-0.307,6.069C28.75,424.069,28.244,424.488,27.656,424.826z"/>
		
			<linearGradient id="SVGID_00000124877077492744567910000007418553870749544835_" gradientUnits="userSpaceOnUse" x1="32.6653" y1="446.967" x2="44.2346" y2="416.9538">
			<stop  offset="0.0241" style="stop-color:#3B967B"/>
			<stop  offset="0.9893" style="stop-color:#378D74;stop-opacity:0"/>
		</linearGradient>
		<path style="fill:url(#SVGID_00000124877077492744567910000007418553870749544835_);" d="M31.971,425.869
			c0.048,1.546,0.985,3.085,0.521,4.56c-0.551,1.752-2.696,2.357-3.984,3.666c-0.348,0.353-0.649,0.807-0.627,1.302
			c0.017,0.37,0.211,0.707,0.409,1.021c1.015,1.615,2.301,3.503,1.548,5.255c-0.436,1.015-1.447,1.637-2.198,2.446
			s-1.217,2.171-0.447,2.963c0.366,0.377,0.92,0.509,1.445,0.524c1.623,0.048,3.105-0.831,4.639-1.364
			c1.533-0.533,3.5-0.611,4.513,0.658c0.172,0.215,0.338,0.481,0.61,0.523c0.235,0.036,0.455-0.113,0.636-0.267
			c1.517-1.295,2.123-3.557,1.456-5.437c-0.277-0.78-0.758-1.557-0.612-2.372c0.153-0.85,0.956-1.438,1.775-1.712
			s1.699-0.322,2.52-0.589c1.251-0.408,2.356-1.395,2.676-2.671c0.32-1.276-0.298-2.788-1.516-3.286
			c-0.641-0.262-1.397-0.25-1.96-0.652c-1.839-1.313,0.322-5.073-1.635-6.202c-0.869-0.501-1.969-0.031-2.797,0.536
			c-0.225,0.155-0.459,0.322-0.73,0.353c-1.522,0.171-1.276-2.947-2.928-3.225C33.433,421.588,31.926,424.407,31.971,425.869z"/>
		
			<linearGradient id="SVGID_00000145023641134039878580000003680235687472873098_" gradientUnits="userSpaceOnUse" x1="47.2789" y1="431.0987" x2="50.4647" y2="452.7284">
			<stop  offset="0.0241" style="stop-color:#3B967B"/>
			<stop  offset="0.9893" style="stop-color:#378D74;stop-opacity:0"/>
		</linearGradient>
		<path style="fill:url(#SVGID_00000145023641134039878580000003680235687472873098_);" d="M48.828,436.417
			c-1.025,1.245-0.174,3.181-0.73,4.695c-0.96,2.615-5.387,2.589-6.171,5.262c-0.365,1.244,0.418,2.709,1.655,3.097
			c1.509,0.473,3.166-0.532,4.697-0.139c1.024,0.263,1.787,1.097,2.697,1.634c1.216,0.718,2.742,0.888,4.087,0.457
			c0.907-0.291,1.794-0.946,1.955-1.884c0.217-1.261-0.897-2.298-1.643-3.338c-0.947-1.322,0.664-2.43,0.997-3.761
			c0.293-1.173,0.213-2.25-0.424-3.278C54.847,437.382,50.689,434.156,48.828,436.417z"/>
		<path style="fill:#6E604A;" d="M45.461,444.217c-2.212,1.801-4.115,4.402-5.417,7.115c-0.723-3.973-1.832-7.819-3.633-11.141
			c-0.209-0.385-0.94-0.238-0.876,0.237c0.515,3.852,1.782,7.592,2.492,11.42c0.877,4.729,1.294,9.497,1.39,14.301
			c0.026,1.296,1.878,1.173,1.909-0.01c0.013,0.003,0.025,0.007,0.038,0.01c-0.11-4.058-0.333-8.524-0.987-12.902
			c0.719-1.314,1.409-2.643,2.221-3.909c1.048-1.635,2.222-3.178,3.227-4.84C45.97,444.259,45.655,444.06,45.461,444.217z"/>
	</g>
	<path style="fill:#1B3D28;" d="M422.115,500.008c0,0,25.553-66.851,26.964-73.634c0,0-26.493,67.114-27.748,73.634H422.115z"/>
	<path style="fill:#265739;" d="M428.797,500c0,0-2.524-53.374-1.598-58.789c0,0,3.374,53.583,2.382,58.789H428.797z"/>
	<path style="fill:#53A36E;" d="M453.518,452.24c0,0-11.776,33.225-12.118,47.76h2.038C443.438,500,442.966,496.262,453.518,452.24z
		"/>
	<path style="fill:#53A36E;" d="M465.87,467.758c0,0-13.391,22.429-14.439,32.242h2.038C453.469,500,453.179,497.477,465.87,467.758
		z"/>
	<path style="fill:#53A36E;" d="M421.96,430.399c0,0,14.66,59.359,20.168,69.601h0.784C442.912,500,427.577,442.969,421.96,430.399z
		"/>
	<path style="fill:#47A269;" d="M416.495,448.81c-0.032,6.846,17.054,51.197,17.054,51.197h1.507
		C433.71,496.694,416.495,448.81,416.495,448.81z"/>
	<g>
		<path style="fill:#B5AB99;" d="M457.178,495.32c0.698,0.019,1.368,0.377,2.047,0.614c2.137,0.746,4.372,0.292,6.565,0.434
			c2.194,0.142,2.989,0.952,4.218,3.63L452.2,500C453.177,497.518,455.23,495.268,457.178,495.32z"/>
		<path style="fill:#A59C8B;" d="M454.884,497.714c0.198-0.235,0.421-0.468,0.675-0.473c0.34-0.006,0.661,0.402,0.99,0.274
			c0.356-0.139,0.474-0.797,0.755-1.148c0.462-0.577,1.172-0.16,1.664,0.361s1.037,1.168,1.629,0.978
			c0.189-0.061,0.36-0.205,0.544-0.294c0.334-0.162,0.697-0.137,1.046-0.079c0.601,0.1,1.195,0.293,1.769,0.573
			c0.465,0.227,0.992,0.506,1.419,0.153c0.111-0.092,0.208-0.223,0.329-0.283c0.166-0.082,0.35-0.03,0.516,0.056
			c1.745,0.901,2.826-0.067,3.541,2.168l-16.398-0.028C453.811,499.14,454.322,498.381,454.884,497.714z"/>
	</g>
	<g>
		
			<ellipse transform="matrix(0.9281 -0.3723 0.3723 0.9281 -42.4333 119.5155)" style="fill:#FFD080;" cx="288.223" cy="169.623" rx="45.212" ry="45.212"/>
		
			<linearGradient id="SVGID_00000072268930279319127260000008355668850454172320_" gradientUnits="userSpaceOnUse" x1="288.2235" y1="212.8862" x2="288.2235" y2="78.9482">
			<stop  offset="0.3624" style="stop-color:#FFFFFF;stop-opacity:0"/>
			<stop  offset="1" style="stop-color:#FFFFFF"/>
		</linearGradient>
		<circle style="fill:url(#SVGID_00000072268930279319127260000008355668850454172320_);" cx="288.223" cy="167.432" r="33.934"/>
	</g>
	<path style="fill:#F7FAF3;" d="M176.789,273.99c-0.829-1.354,0.23-3.091,2.236-3.667c2.006-0.576,5.191-0.974,6.079,0.363
		c-1.312-2.08,1.642-4.755,4.99-4.518c2.294,0.162,4.043,1.222,5.623,2.35c-0.833-3.368,1.081-11.007,8.475-11.662
		c12.153-1.076,19.439,7.604,18.723,13.073c0.566-1.76,2.007-3.972,4.672-3.762c1.099,0.087,2.01,0.608,2.742,1.165
		c1.6,1.218,3.588,2.774,4.04,4.369c1.642-1.599,4.615-2.535,7.497-2.362c2.882,0.173,4.143,2.3,5.336,4.069
		c14.804,1.454,29.774,2.098,45.874,1.999c1.048,1.674-12.22,1.465-19.217,1.181c-20.281-0.823-129.099,0-127.776-1.726
		C146.082,273.73,162.839,274.862,176.789,273.99z"/>
</g>
</svg>
