<?xml version="1.0" encoding="utf-8"?>
<!-- Generator: Adobe Illustrator 27.5.0, SVG Export Plug-In . SVG Version: 6.00 Build 0)  -->
<svg version="1.1" id="Layer_1" xmlns="http://www.w3.org/2000/svg" xmlns:xlink="http://www.w3.org/1999/xlink" x="0px" y="0px"
	 viewBox="0 0 2807 1604" style="enable-background:new 0 0 2807 1604;" xml:space="preserve">
<g>
	
		<rect transform="matrix(-1 -1.224647e-16 1.224647e-16 -1 2806.2429 1603.5675)" style="fill:#001421;" width="2806.243" height="1603.568"/>
	<g>
		<g>
			<path style="fill:#42494D;" d="M1192.396,675.229c-11.403,0-20.135,3.48-26.206,10.434c-6.071,6.96-9.102,16.807-9.102,29.536
				c0,12.882,3.365,22.8,10.102,29.76c6.734,6.96,15.801,10.434,27.204,10.434c6.068,0,11.214-0.81,15.434-2.441
				c4.219-1.626,8.252-3.474,12.104-5.552c2.515,2.077,4.475,4.551,5.883,7.439c1.405,2.887,2.11,6.258,2.11,10.102
				c0,6.073-3.369,11.218-10.103,15.437c-6.74,4.219-16.989,6.329-30.757,6.329c-9.92,0-19.248-1.408-27.981-4.219
				c-8.738-2.811-16.361-7.139-22.873-12.99c-6.517-5.851-11.66-13.251-15.434-22.207c-3.776-8.956-5.663-19.656-5.663-32.092
				c0-11.549,1.811-21.722,5.44-30.531c3.627-8.808,8.586-16.247,14.88-22.321c6.291-6.068,13.656-10.657,22.095-13.767
				c8.439-3.11,17.468-4.665,27.092-4.665c13.62,0,24.167,2.224,31.646,6.661c7.473,4.442,11.214,10.146,11.214,17.101
				c0,3.855-0.965,7.183-2.887,9.994c-1.925,2.817-4.146,5.035-6.664,6.661c-3.85-2.512-7.958-4.66-12.324-6.438
				C1203.238,676.115,1198.171,675.229,1192.396,675.229z"/>
			<path style="fill:#42494D;" d="M1277.225,782.488c-1.629,0.294-4.035,0.702-7.216,1.223c-3.186,0.517-6.405,0.772-9.659,0.772
				c-3.26,0-6.186-0.218-8.773-0.664c-2.591-0.445-4.774-1.332-6.55-2.664c-1.778-1.332-3.148-3.143-4.111-5.443
				c-0.962-2.294-1.444-5.291-1.444-8.993V637.923c1.629-0.299,4.035-0.702,7.218-1.223c3.181-0.517,6.403-0.778,9.66-0.778
				c3.255,0,6.18,0.223,8.773,0.669c2.588,0.44,4.774,1.332,6.549,2.664c1.778,1.332,3.146,3.143,4.108,5.437
				c0.963,2.3,1.444,5.296,1.444,8.994V782.488z"/>
			<path style="fill:#42494D;" d="M1403.804,728.744c0,9.184-1.408,17.362-4.219,24.54c-2.814,7.183-6.772,13.213-11.881,18.101
				c-5.106,4.883-11.214,8.585-18.318,11.103c-7.107,2.517-15.029,3.773-23.762,3.773c-8.738,0-16.655-1.332-23.762-3.996
				c-7.106-2.665-13.213-6.476-18.321-11.435c-5.109-4.959-9.07-10.994-11.881-18.101c-2.814-7.107-4.219-15.1-4.219-23.985
				c0-8.732,1.405-16.655,4.219-23.761c2.811-7.101,6.772-13.137,11.881-18.096c5.109-4.959,11.215-8.771,18.321-11.435
				c7.107-2.665,15.024-3.997,23.762-3.997c8.733,0,16.655,1.37,23.762,4.105c7.104,2.74,13.213,6.59,18.318,11.549
				c5.109,4.959,9.067,10.989,11.881,18.096C1402.396,712.313,1403.804,720.164,1403.804,728.744z M1326.081,728.744
				c0,9.037,1.737,15.959,5.217,20.766c3.478,4.812,8.327,7.216,14.545,7.216c6.218,0,10.995-2.441,14.325-7.324
				c3.33-4.888,4.997-11.772,4.997-20.657c0-8.879-1.705-15.725-5.109-20.537c-3.406-4.812-8.216-7.221-14.434-7.221
				s-11.032,2.409-14.437,7.221C1327.78,713.019,1326.081,719.865,1326.081,728.744z"/>
			<path style="fill:#42494D;" d="M1413.352,676.338c1.479-0.445,3.811-0.886,6.995-1.332c3.184-0.446,6.476-0.669,9.883-0.669
				c3.255,0,6.18,0.223,8.773,0.669c2.588,0.446,4.774,1.332,6.55,2.664c1.778,1.332,3.145,3.148,4.108,5.443
				c0.962,2.294,1.443,5.291,1.443,8.994v47.741c0,6.074,1.479,10.407,4.443,12.996c2.96,2.588,7.251,3.882,12.879,3.882
				c3.404,0,6.182-0.294,8.33-0.886c2.142-0.587,3.809-1.185,4.994-1.778v-77.723c1.479-0.445,3.812-0.886,6.996-1.332
				c3.184-0.446,6.476-0.669,9.883-0.669c3.255,0,6.18,0.223,8.773,0.669c2.588,0.446,4.774,1.332,6.549,2.664
				c1.778,1.332,3.143,3.148,4.108,5.443c0.963,2.294,1.444,5.291,1.444,8.994v67.506c0,7.406-3.107,12.957-9.325,16.655
				c-5.184,3.262-11.364,5.742-18.545,7.444c-7.183,1.697-14.988,2.55-23.427,2.55c-7.995,0-15.361-0.886-22.097-2.664
				c-6.737-1.778-12.547-4.513-17.433-8.216c-4.885-3.697-8.659-8.472-11.324-14.322c-2.664-5.845-3.999-12.914-3.999-21.212
				V676.338z"/>
			<path style="fill:#42494D;" d="M1529.047,728.744c0-9.771,1.479-18.242,4.442-25.425c2.958-7.177,7.069-13.136,12.324-17.878
				c5.253-4.736,11.4-8.248,18.433-10.544c7.028-2.295,14.619-3.441,22.761-3.441c2.961,0,5.848,0.255,8.662,0.772
				c2.808,0.522,5.106,1.153,6.884,1.892v-35.98c1.477-0.44,3.847-0.919,7.107-1.441c3.255-0.517,6.585-0.778,9.991-0.778
				c3.255,0,6.18,0.223,8.773,0.669c2.589,0.44,4.774,1.332,6.55,2.664c1.778,1.332,3.11,3.143,3.997,5.437
				c0.889,2.3,1.335,5.296,1.335,8.994V758.95c0,6.96-3.26,12.511-9.771,16.655c-4.296,2.811-9.847,5.296-16.658,7.438
				c-6.81,2.143-14.654,3.219-23.538,3.219c-9.624,0-18.248-1.332-25.871-3.996c-7.626-2.665-14.067-6.515-19.319-11.55
				c-5.258-5.029-9.255-11.065-11.992-18.096C1530.415,745.589,1529.047,737.629,1529.047,728.744z M1592.116,700.986
				c-7.996,0-14.14,2.3-18.433,6.884c-4.296,4.595-6.441,11.549-6.441,20.874c0,9.184,1.998,16.1,5.998,20.766
				c3.997,4.665,9.771,6.998,17.321,6.998c2.664,0,5.071-0.408,7.218-1.224c2.143-0.81,3.809-1.74,4.995-2.778V703.65
				C1599.81,701.878,1596.26,700.986,1592.116,700.986z"/>
			<path style="fill:#42494D;" d="M1746.009,750.51c0,11.25-4.219,20.064-12.659,26.426c-8.439,6.362-20.874,9.549-37.306,9.549
				c-6.22,0-11.992-0.446-17.323-1.332c-5.329-0.886-9.88-2.257-13.656-4.111c-3.776-1.849-6.74-4.182-8.882-6.992
				c-2.148-2.811-3.222-6.144-3.222-9.994c0-3.551,0.739-6.552,2.221-8.993c1.479-2.441,3.254-4.475,5.328-6.106
				c4.293,2.371,9.217,4.48,14.768,6.329c5.551,1.855,11.954,2.773,19.21,2.773c4.587,0,8.105-0.663,10.549-1.996
				c2.442-1.332,3.662-3.11,3.662-5.328c0-2.072-0.886-3.703-2.664-4.889c-1.776-1.18-4.739-2.142-8.882-2.887l-6.664-1.333
				c-12.879-2.512-22.465-6.476-28.756-11.881c-6.294-5.399-9.439-13.137-9.439-23.207c0-5.475,1.183-10.435,3.553-14.877
				c2.368-4.443,5.698-8.14,9.994-11.103c4.293-2.958,9.437-5.253,15.434-6.884c5.995-1.626,12.62-2.441,19.874-2.441
				c5.475,0,10.622,0.408,15.434,1.218c4.81,0.816,8.993,2.039,12.547,3.665c3.553,1.631,6.365,3.741,8.439,6.329
				c2.071,2.594,3.11,5.666,3.11,9.217c0,3.409-0.633,6.329-1.889,8.771c-1.259,2.441-2.852,4.48-4.774,6.106
				c-1.185-0.739-2.964-1.517-5.329-2.327c-2.37-0.816-4.962-1.555-7.773-2.224c-2.813-0.664-5.663-1.218-8.55-1.664
				c-2.887-0.446-5.516-0.669-7.884-0.669c-4.886,0-8.659,0.555-11.323,1.669c-2.667,1.11-3.999,2.85-3.999,5.215
				c0,1.631,0.739,2.963,2.222,3.996c1.479,1.039,4.292,2.001,8.439,2.888l6.884,1.555c14.213,3.262,24.316,7.737,30.313,13.436
				C1743.01,734.117,1746.009,741.479,1746.009,750.51z"/>
		</g>
		<g>
			<path style="fill:#42494D;" d="M1203.613,825.566c0.786,1.031,1.18,2.273,1.18,3.73c0,2.126-0.856,3.768-2.566,4.924
				c-1.71,1.158-4.184,1.734-7.422,1.734h-13.11v-24.278h12.417c3.096,0,5.457,0.573,7.074,1.718
				c1.618,1.144,2.428,2.686,2.428,4.63c0,1.155-0.283,2.192-0.848,3.102c-0.569,0.917-1.37,1.637-2.411,2.17
				C1201.74,823.78,1202.828,824.538,1203.613,825.566z M1188.492,816.635v4.684h4.717c2.313,0,3.469-0.786,3.469-2.36
				c0-1.549-1.155-2.325-3.469-2.325H1188.492z M1197.858,828.532c0-1.642-1.204-2.463-3.607-2.463h-5.758v4.927h5.758
				C1196.653,830.995,1197.858,830.174,1197.858,828.532z"/>
			<path style="fill:#42494D;" d="M1249.603,831.238h-10.266l-1.908,4.717h-7.006l10.717-24.278h6.764l10.75,24.278h-7.142
				L1249.603,831.238z M1247.592,826.175l-3.121-7.77l-3.121,7.77H1247.592z"/>
			<path style="fill:#42494D;" d="M1290.476,834.826c-2.026-1.074-3.613-2.572-4.768-4.491c-1.159-1.917-1.735-4.092-1.735-6.52
				c0-2.428,0.576-4.6,1.735-6.519c1.155-1.92,2.743-3.418,4.768-4.492c2.023-1.076,4.303-1.612,6.849-1.612
				c2.221,0,4.219,0.391,6,1.177c1.781,0.788,3.26,1.919,4.44,3.401l-4.369,3.953c-1.574-1.895-3.483-2.844-5.723-2.844
				c-1.318,0-2.493,0.289-3.521,0.867c-1.031,0.576-1.827,1.392-2.392,2.444c-0.568,1.052-0.851,2.259-0.851,3.624
				c0,1.365,0.283,2.572,0.851,3.624c0.565,1.052,1.362,1.868,2.392,2.447c1.027,0.576,2.202,0.865,3.521,0.865
				c2.24,0,4.149-0.946,5.723-2.844l4.369,3.956c-1.18,1.479-2.659,2.612-4.44,3.398s-3.779,1.18-6,1.18
				C1294.78,836.441,1292.499,835.903,1290.476,834.826z"/>
			<path style="fill:#42494D;" d="M1345.15,827.146l-2.566,2.741v6.068h-6.797v-24.278h6.797v10.092l9.399-10.092h7.561
				l-9.918,10.752l10.44,13.526h-7.977L1345.15,827.146z"/>
			<path style="fill:#42494D;" d="M1402.241,823.296h6.068v10.056c-1.386,0.996-2.982,1.76-4.785,2.29
				c-1.802,0.533-3.607,0.799-5.41,0.799c-2.545,0-4.834-0.538-6.867-1.615c-2.034-1.074-3.629-2.572-4.785-4.491
				c-1.158-1.917-1.735-4.092-1.735-6.52c0-2.428,0.577-4.6,1.735-6.519c1.155-1.92,2.762-3.418,4.82-4.492
				c2.058-1.076,4.38-1.612,6.971-1.612c2.265,0,4.301,0.38,6.104,1.144c1.803,0.761,3.306,1.86,4.508,3.295l-4.369,3.953
				c-1.642-1.805-3.608-2.706-5.896-2.706c-2.08,0-3.757,0.631-5.027,1.89c-1.272,1.262-1.908,2.941-1.908,5.046
				c0,1.34,0.288,2.539,0.867,3.589c0.576,1.055,1.386,1.873,2.428,2.463c1.042,0.59,2.232,0.884,3.573,0.884
				c1.319,0,2.555-0.264,3.711-0.797V823.296z"/>
			<path style="fill:#42494D;" d="M1448.263,829.503h-3.747v6.452h-6.867v-24.278h11.098c2.197,0,4.105,0.364,5.723,1.093
				c1.618,0.728,2.866,1.769,3.747,3.121c0.878,1.354,1.318,2.944,1.318,4.769c0,1.759-0.413,3.289-1.232,4.597
				c-0.821,1.305-1.996,2.327-3.521,3.067l5.236,7.631h-7.351L1448.263,829.503z M1451.522,818.024
				c-0.718-0.625-1.781-0.938-3.191-0.938h-3.815v7.109h3.815c1.411,0,2.474-0.305,3.191-0.919c0.715-0.612,1.074-1.484,1.074-2.618
				C1452.597,819.528,1452.238,818.647,1451.522,818.024z"/>
			<path style="fill:#42494D;" d="M1493.608,834.81c-2.047-1.087-3.654-2.589-4.82-4.508c-1.169-1.919-1.751-4.081-1.751-6.487
				c0-2.404,0.582-4.565,1.751-6.484c1.167-1.919,2.773-3.423,4.82-4.511c2.047-1.085,4.353-1.628,6.919-1.628
				c2.566,0,4.872,0.543,6.919,1.628c2.047,1.088,3.654,2.591,4.82,4.511c1.169,1.919,1.753,4.081,1.753,6.484
				c0,2.406-0.584,4.567-1.753,6.487c-1.167,1.919-2.773,3.42-4.82,4.508c-2.047,1.087-4.353,1.631-6.919,1.631
				C1497.961,836.441,1495.656,835.897,1493.608,834.81z M1503.858,829.886c0.993-0.579,1.781-1.395,2.357-2.447
				c0.579-1.052,0.867-2.259,0.867-3.624c0-1.365-0.288-2.572-0.867-3.624c-0.576-1.052-1.365-1.868-2.357-2.444
				c-0.995-0.579-2.104-0.867-3.33-0.867c-1.226,0-2.335,0.289-3.33,0.867c-0.993,0.576-1.781,1.392-2.358,2.444
				c-0.579,1.052-0.867,2.259-0.867,3.624c0,1.365,0.288,2.572,0.867,3.624c0.576,1.052,1.365,1.868,2.358,2.447
				c0.995,0.576,2.104,0.865,3.33,0.865C1501.754,830.751,1502.863,830.463,1503.858,829.886z"/>
			<path style="fill:#42494D;" d="M1545.389,833.491c-2.001-1.963-3.001-4.749-3.001-8.357v-13.458h6.868v13.248
				c0,3.885,1.538,5.826,4.614,5.826c3.053,0,4.578-1.941,4.578-5.826v-13.248h6.762v13.458c0,3.608-1,6.394-2.999,8.357
				c-2.001,1.966-4.804,2.95-8.412,2.95C1550.193,836.441,1547.387,835.457,1545.389,833.491z"/>
			<path style="fill:#42494D;" d="M1617.928,811.676v24.278h-5.653l-10.717-12.935v12.935h-6.729v-24.278h5.653l10.717,12.938
				v-12.938H1617.928z"/>
			<path style="fill:#42494D;" d="M1647.755,811.676h11.478c2.659,0,5.019,0.497,7.077,1.492c2.058,0.995,3.654,2.404,4.785,4.23
				c1.134,1.827,1.699,3.967,1.699,6.417c0,2.452-0.566,4.589-1.699,6.416c-1.131,1.827-2.727,3.238-4.785,4.23
				c-2.058,0.995-4.418,1.492-7.077,1.492h-11.478V811.676z M1658.956,830.474c2.082,0,3.752-0.587,5.013-1.767
				c1.259-1.18,1.89-2.808,1.89-4.891c0-2.08-0.631-3.711-1.89-4.891c-1.262-1.177-2.931-1.767-5.013-1.767h-4.334v13.316H1658.956z
				"/>
		</g>
	</g>
	<g>
		<defs>
			
				<rect id="SVGID_1_" transform="matrix(-1 -1.224647e-16 1.224647e-16 -1 2806.2429 1603.5675)" width="2806.243" height="1603.568"/>
		</defs>
		<clipPath id="SVGID_00000062166328153138948620000000645355097660337821_">
			<use xlink:href="#SVGID_1_"  style="overflow:visible;"/>
		</clipPath>
		<g style="clip-path:url(#SVGID_00000062166328153138948620000000645355097660337821_);">
			<path style="fill:#292929;" d="M702.202,973.388c28.894-46.033,89.634-59.927,135.667-31.033
				c46.033,28.894,59.927,89.634,31.033,135.667c-4.727-38.74,22.846-73.976,61.585-78.703
				c38.739-4.727,73.975,22.846,78.702,61.585c40.901-69.518,130.414-92.716,199.933-51.815
				c69.518,40.902,92.716,130.414,51.814,199.932c-16.714-15.225-17.92-41.118-2.695-57.832
				c15.226-16.714,41.118-17.921,57.833-2.695c-1.426-87.557,68.397-159.691,155.954-161.117
				c87.556-1.425,159.691,68.398,161.117,155.954c-9.487-40.105,15.335-80.307,55.44-89.794
				c40.105-9.486,80.307,15.335,89.794,55.44c-0.371-32.869,25.974-59.816,58.844-60.187c32.869-0.371,59.816,25.974,60.187,58.844
				c-35.596-24.556-44.546-73.32-19.99-108.916c24.556-35.596,73.319-44.546,108.916-19.991
				c-15.691-51.828,13.605-106.563,65.433-122.254c51.828-15.69,106.563,13.605,122.254,65.433
				c-12.422-57.802,24.366-114.731,82.168-127.153c57.802-12.422,114.731,24.366,127.153,82.168
				c-66.547-5.87-115.737-64.576-109.866-131.124c5.87-66.548,64.576-115.738,131.125-109.867
				c-27.192-52.619-6.58-117.319,46.04-144.512c52.619-27.192,117.319-6.58,144.511,46.04
				c-25.802-5.234-42.477-30.394-37.242-56.197c5.234-25.803,30.394-42.477,56.198-37.243
				c-25.425-31.791-20.263-78.173,11.529-103.597c31.791-25.424,78.173-20.262,103.597,11.529
				c-78.286-49.248-101.826-152.635-52.577-230.921c49.248-78.286,152.634-101.826,230.921-52.578
				c82.335,2.396,147.14,71.085,144.744,153.421c-2.396,82.336-71.085,147.141-153.421,144.745
				c43.649,26.118,57.861,82.676,31.743,126.326c-26.118,43.65-82.677,57.862-126.326,31.743
				c34.903,3.558,60.313,34.737,56.756,69.641c-3.558,34.903-34.737,60.314-69.64,56.755
				c47.142-11.099,94.355,18.119,105.454,65.261c11.099,47.142-18.119,94.355-65.261,105.454
				c69.414-2.069,127.363,52.525,129.432,121.938c2.069,69.414-52.525,127.363-121.939,129.432
				c14.043,13.083,14.822,35.073,1.739,49.115c-13.083,14.043-35.073,14.822-49.115,1.739
				c56.262,8.972,94.598,61.854,85.626,118.117c-8.971,56.262-61.854,94.598-118.117,85.627
				c69.468-10.793,134.533,36.771,145.327,106.239c10.794,69.468-36.771,134.533-106.239,145.327
				c22.234,5.735,35.609,28.409,29.873,50.642c-5.735,22.234-28.408,35.608-50.642,29.873
				c36.374,60.061,17.171,138.237-42.89,174.611c-60.061,36.373-138.237,17.17-174.61-42.89
				c3.617,49.423-33.515,92.422-82.938,96.04c-49.424,3.618-92.422-33.515-96.04-82.938
				c-28.379,40.764-84.431,50.804-125.194,22.424c-40.764-28.379-50.803-84.431-22.424-125.194
				c20.66,40.706,4.41,90.452-36.295,111.113c-40.706,20.66-90.453,4.41-111.113-36.295c18.247,29.174,9.389,67.617-19.786,85.863
				c-29.174,18.247-67.617,9.388-85.863-19.786c-23.113,44.275-77.741,61.43-122.016,38.317
				c-44.275-23.112-61.43-77.741-38.317-122.015c29.109,25.8,31.792,70.312,5.993,99.421c-25.8,29.11-70.313,31.792-99.422,5.993
				c-20.197,71.711-94.702,113.472-166.413,93.275c-71.711-20.197-113.471-94.702-93.275-166.413
				c2.426,25.915-16.615,48.889-42.53,51.315c-25.914,2.426-48.889-16.615-51.315-42.53c24.948,39.636,13.041,91.993-26.595,116.942
				c-39.637,24.948-91.994,13.041-116.942-26.596c-28.675,79.564-116.42,120.817-195.984,92.142
				c-79.564-28.675-120.817-116.42-92.142-195.984c33.12,20.913,43.016,64.716,22.103,97.836
				c-20.913,33.12-64.716,43.016-97.836,22.103c-5.621,32.49-36.516,54.27-69.005,48.648c-32.49-5.621-54.27-36.516-48.648-69.006
				c-14.816,75.868-88.33,125.36-164.199,110.543c-75.867-14.816-125.36-88.33-110.543-164.198
				c27.806,26.074,29.211,69.753,3.137,97.559c-26.074,27.807-69.753,29.211-97.56,3.137
				c-11.649,28.843-44.474,42.782-73.317,31.133c-28.843-11.649-42.782-44.474-31.132-73.317
				c0.433,40.382-31.952,73.468-72.334,73.901c-40.381,0.433-73.467-31.952-73.901-72.334
				c19.359,86.815-35.325,172.887-122.14,192.246s-172.887-35.325-192.246-122.141c-30.431,41.227-88.521,49.98-129.748,19.549
				c-41.227-30.43-49.98-88.521-19.549-129.747c-25.388-24.421-26.172-64.797-1.752-90.185c24.42-25.388,64.798-26.172,90.185-1.752
				c-31.51,40.554-89.928,47.886-130.482,16.376c-40.553-31.509-47.886-89.928-16.376-130.482
				c-46.056-18.705-68.23-71.204-49.525-117.261c18.704-46.056,71.204-68.229,117.261-49.525
				c-78.245-10.829-132.896-83.039-122.067-161.284c10.83-78.245,83.039-132.896,161.284-122.067
				c-13.329,8.34-30.896,4.296-39.236-9.033c-8.34-13.329-4.296-30.896,9.034-39.236c-75.844,8.065-143.866-46.88-151.931-122.725
				c-8.065-75.844,46.881-143.866,122.725-151.931c-38.909-32.053-44.468-89.58-12.414-128.49
				c32.053-38.909,89.58-44.468,128.49-12.414c-50.898-4.178-88.772-48.825-84.594-99.723c4.178-50.898,48.825-88.773,99.723-84.594
				c-45.43,12.753-92.596-13.737-105.349-59.166c-12.753-45.43,13.736-92.597,59.166-105.349
				c-47.942-33.023-60.037-98.658-27.014-146.6s98.658-60.036,146.6-27.014c-9.538,11.857-26.882,13.738-38.74,4.201
				c-11.857-9.538-13.738-26.883-4.2-38.74c44.212-38.547,111.303-33.955,149.85,10.258C3.723,230.05-0.869,297.14-45.081,335.687
				c-4.24-27.104,14.294-52.514,41.397-56.754c27.104-4.24,52.514,14.294,56.754,41.398c27.054-54.452,93.128-76.663,147.581-49.608
				c54.452,27.054,76.662,93.128,49.608,147.58c46.176-37.363,113.898-30.219,151.262,15.957
				c37.364,46.176,30.219,113.898-15.957,151.261c30.008-29.898,78.572-29.808,108.47,0.2c29.898,30.008,29.808,78.573-0.201,108.47
				c17.571-18.646,46.932-19.518,65.579-1.947c18.646,17.572,19.518,46.932,1.947,65.579c59.526-38.893,139.31-22.167,178.204,37.36
				C778.455,854.71,761.728,934.495,702.202,973.388z"/>
			<path style="fill:#42494D;" d="M838.375,1252.956c9.837-37.2,47.968-59.381,85.168-49.545
				c37.2,9.837,59.382,47.968,49.545,85.168c15.462-79.051,92.079-130.6,171.131-115.138c79.051,15.462,130.6,92.08,115.138,171.131
				c-25.072-49.603-5.185-110.138,44.418-135.21c49.603-25.071,110.139-5.185,135.21,44.418
				c28.479-45.478,88.433-59.258,133.911-30.78c45.478,28.479,59.259,88.433,30.78,133.912
				c-13.424-69.736,32.227-137.151,101.963-150.574c69.736-13.424,137.15,32.227,150.574,101.963
				c0.914-33.692,28.968-60.264,62.661-59.35c33.692,0.914,60.264,28.969,59.35,62.661c-31.036-34.181-28.486-87.049,5.695-118.085
				c34.181-31.036,87.049-28.486,118.085,5.695c-10.118-65.987,35.172-127.681,101.159-137.799
				c65.986-10.118,127.681,35.173,137.799,101.159c-23.963-3.638-40.44-26.013-36.802-49.977
				c3.639-23.963,26.014-40.44,49.977-36.802c-21.141-69.088,17.727-142.232,86.815-163.372
				c69.087-21.141,142.231,17.728,163.372,86.815c0.028-9.313,7.601-16.841,16.915-16.813c9.313,0.028,16.841,7.601,16.813,16.915
				c-27.609-63.118,1.176-136.666,64.293-164.276s136.666,1.176,164.275,64.294c-10.41-59.227,29.163-115.678,88.39-126.089
				c59.226-10.41,115.678,29.163,126.088,88.39c23.872-0.654,43.754,18.168,44.408,42.04s-18.168,43.754-42.04,44.408
				c29.718,14.783,41.825,50.858,27.042,80.576c-14.783,29.718-50.858,41.825-80.576,27.042
				c51.866-3.131,96.45,36.376,99.581,88.242c3.131,51.867-36.376,96.45-88.242,99.582c50.809-7.15,97.795,28.242,104.945,79.052
				c7.15,50.809-28.242,97.795-79.052,104.945c72.729-2.979,134.103,53.563,137.083,126.293
				c2.98,72.728-53.563,134.103-126.292,137.083c56.012-0.643,101.941,44.243,102.584,100.255
				c0.643,56.013-44.243,101.941-100.256,102.584c4.063,49.576-32.833,93.06-82.409,97.123
				c-49.576,4.063-93.06-32.833-97.123-82.409c34.295,70.133,5.243,154.788-64.89,189.082
				c-70.133,34.295-154.788,5.242-189.082-64.89c-14.663,38.057-57.401,57.022-95.458,42.359
				c-38.057-14.663-57.022-57.401-42.36-95.458c12.566,39.115-8.956,81.01-48.071,93.576c-39.114,12.566-81.01-8.957-93.575-48.071
				c-23.909,47.19-81.546,66.061-128.735,42.152c-47.189-23.909-66.061-81.546-42.152-128.735
				c2.215,30.233-20.498,56.537-50.732,58.752c-30.233,2.215-56.538-20.498-58.753-50.732
				c3.909,54.529-37.126,101.901-91.656,105.81c-54.528,3.909-101.901-37.127-105.809-91.655
				c4.16,53.478-35.82,100.204-89.299,104.364c-53.478,4.16-100.204-35.82-104.364-89.299c4.965,44.856-27.374,85.245-72.23,90.209
				c-44.857,4.965-85.245-27.374-90.209-72.23c23.39,37.215,12.183,86.344-25.031,109.734
				c-37.214,23.39-86.344,12.184-109.734-25.031c6.24,51.436-30.399,98.191-81.835,104.431
				c-51.436,6.24-98.191-30.398-104.431-81.834c-19.509,36.413-64.843,50.115-101.255,30.606
				c-36.413-19.509-50.115-64.843-30.606-101.255c-13.687,78.562-88.47,131.154-167.032,117.466
				c-78.562-13.687-131.153-88.469-117.466-167.031c-3.757,48.979-46.508,85.64-95.488,81.884
				c-48.98-3.757-85.64-46.508-81.884-95.488c21.919,13.721,28.565,42.612,14.844,64.531
				c-13.721,21.919-42.613,28.565-64.532,14.844c-6.703,70.819-69.548,122.795-140.366,116.091
				c-70.819-6.703-122.795-69.548-116.091-140.367c-21.462,27.578-61.216,32.535-88.793,11.073
				c-27.577-21.462-32.535-61.216-11.073-88.793c-1.256,46.394-39.883,82.986-86.276,81.73
				c-46.394-1.255-82.986-39.883-81.73-86.277c-17.594,72.909-90.961,117.751-163.871,100.157
				c-72.909-17.594-117.751-90.962-100.157-163.871c-38.59,15.963-82.814-2.38-98.778-40.971
				c-15.963-38.59,2.381-82.814,40.971-98.778c-44.97,9.798-89.368-18.714-99.166-63.684c-9.798-44.97,18.715-89.368,63.684-99.166
				c-62.006-19.956-96.095-86.4-76.139-148.407c19.956-62.007,86.4-96.095,148.407-76.139
				c-58.309,22.863-124.113-5.872-146.976-64.182s5.872-124.113,64.182-146.976c-64.21-26.638-94.668-100.284-68.03-164.494
				c26.638-64.209,100.284-94.668,164.494-68.03c-51.696-39.237-61.796-112.953-22.559-164.649
				c39.237-51.696,112.954-61.796,164.649-22.559c45.702-38.362,113.848-32.412,152.21,13.29
				c38.361,45.702,32.411,113.848-13.29,152.21c3.239-33.7,33.183-58.393,66.883-55.154c33.7,3.239,58.393,33.184,55.154,66.883
				c41.426-10.726,83.704,14.162,94.429,55.589c10.726,41.427-14.162,83.705-55.589,94.43
				c22.763-61.825,91.335-93.492,153.161-70.729c61.825,22.763,93.491,91.335,70.728,153.161
				c6.7-61.477,61.968-105.882,123.445-99.182c61.476,6.7,105.882,61.968,99.182,123.445
				c27.816-48.809,89.933-65.828,138.742-38.012C849.173,1142.03,866.191,1204.147,838.375,1252.956z"/>
			<path style="fill:#FFFFFF;" d="M1933.921,1534.133c-45.396-47.026-44.074-121.95,2.952-167.346
				c47.027-45.397,121.951-44.075,167.347,2.952c8.765-53.986,59.635-90.646,113.622-81.88
				c53.986,8.765,90.645,59.635,81.88,113.621c-14.593-56.076,19.036-113.364,75.112-127.957
				c56.076-14.593,113.365,19.036,127.958,75.112c-4.345-39.659,24.282-75.332,63.942-79.677
				c39.659-4.345,75.332,24.283,79.677,63.942c0.316-79.49,65.01-143.672,144.5-143.357c79.49,0.316,143.672,65.011,143.357,144.5
				c10.051-41.765,52.056-67.475,93.821-57.424c41.765,10.051,67.475,52.056,57.425,93.821c29.3,7.55,46.933,37.422,39.383,66.722
				c-7.55,29.301-37.422,46.933-66.722,39.384c69.451-9.35,133.332,39.372,142.682,108.824
				c9.35,69.451-39.373,133.332-108.824,142.682c51.339-5.329,97.278,31.969,102.608,83.308
				c5.329,51.339-31.969,97.278-83.308,102.608c46.028,16.262,70.158,66.758,53.896,112.786
				c-16.262,46.029-66.759,70.158-112.786,53.896c-0.339,27.586-22.977,49.676-50.564,49.336
				c-27.587-0.339-49.676-22.977-49.336-50.563c25.126,23.947,26.083,63.729,2.136,88.856
				c-23.947,25.127-63.729,26.083-88.856,2.136c13.488,84.017-43.688,163.06-127.705,176.547
				c-84.017,13.488-163.06-43.688-176.547-127.705c-21.167,17.845-52.793,15.152-70.638-6.016
				c-17.845-21.167-15.152-52.793,6.015-70.638c-9.551,37.006-47.293,59.263-84.3,49.713c-37.006-9.551-59.264-47.293-49.713-84.3
				c6.997,84.733-56.02,159.095-140.753,166.093s-159.096-56.02-166.094-140.754c-8.946,43.936-51.815,72.3-95.751,63.354
				c-43.935-8.947-72.3-51.815-63.354-95.751c2.534,28.158-18.237,53.039-46.395,55.573c-28.158,2.535-53.039-18.237-55.574-46.395
				c-6.819,43.136-47.316,72.577-90.453,65.759c-43.136-6.819-72.577-47.316-65.758-90.453c-10.58,41.831-53.068,67.166-94.9,56.586
				c-41.831-10.58-67.166-53.068-56.586-94.9c3.165,72.321-52.898,133.514-125.219,136.679
				c-72.321,3.164-133.514-52.898-136.678-125.219c27.363,10.252,41.235,40.745,30.983,68.108
				c-10.252,27.364-40.745,41.236-68.108,30.984c-20.96,48.349-77.147,70.552-125.496,49.592
				c-48.349-20.96-70.552-77.147-49.591-125.496c-12.015,69.47-78.071,116.047-147.541,104.032
				c-69.469-12.015-116.047-78.071-104.032-147.54c-8.038,41.943-48.555,69.43-90.499,61.392
				c-41.943-8.037-69.429-48.555-61.392-90.498c20.136,64.542-15.863,133.188-80.406,153.324
				c-64.543,20.136-133.188-15.863-153.324-80.405c2.383,21.301-12.953,40.502-34.255,42.885
				c-21.302,2.383-40.502-12.953-42.885-34.255c-30.31,34.819-83.108,38.473-117.926,8.163
				c-34.818-30.31-38.473-83.107-8.163-117.926c26.332,77.62-15.244,161.89-92.864,188.222
				c-77.62,26.333-161.89-15.244-188.222-92.864c-35.621,29.733-88.603,24.96-118.336-10.662s-24.96-88.603,10.662-118.337
				c-62.431,48.787-152.592,37.727-201.379-24.704c-48.787-62.431-37.726-152.592,24.705-201.379
				c-50.722-48.14-52.815-128.285-4.674-179.007c48.141-50.722,128.285-52.815,179.007-4.674
				c-44.764-9.569-73.295-53.615-63.726-98.379c9.569-44.764,53.615-73.295,98.379-63.726
				c6.246-66.482,65.203-115.313,131.685-109.068c66.482,6.245,115.313,65.203,109.068,131.685
				c-8.354-21.072,1.956-44.926,23.028-53.28c21.072-8.354,44.927,1.956,53.281,23.028c4.801-40.203,41.283-68.902,81.486-64.101
				c40.203,4.801,68.902,41.283,64.101,81.486c-27.229-55.806-4.064-123.119,51.742-150.349
				c55.806-27.229,123.119-4.063,150.349,51.742c43.767-65.34,132.216-82.829,197.557-39.062
				c65.341,43.767,82.829,132.216,39.063,197.557c5.012-35.979,38.242-61.084,74.222-56.073
				c35.98,5.012,61.085,38.242,56.073,74.222c-16.183-53.864,14.362-110.649,68.227-126.833
				c53.864-16.184,110.649,14.363,126.833,68.226c21.713-32.907,65.991-41.982,98.899-20.269
				c32.907,21.713,41.982,65.991,20.269,98.899c-1.683-56.027,42.372-102.81,98.399-104.493
				c56.027-1.683,102.81,42.372,104.493,98.398c-0.842-65.813,51.828-119.847,117.641-120.689
				c65.813-0.842,119.847,51.828,120.689,117.64c-11.404-72.973,38.507-141.374,111.48-152.778
				c72.973-11.404,141.374,38.507,152.778,111.48c27.979-18.288,65.487-10.432,83.776,17.548
				C1969.757,1478.337,1961.901,1515.845,1933.921,1534.133z"/>
		</g>
	</g>
</g>
</svg>
