<?xml version="1.0" encoding="utf-8"?>
<!-- Generator: Adobe Illustrator 27.5.0, SVG Export Plug-In . SVG Version: 6.00 Build 0)  -->
<svg version="1.1" xmlns="http://www.w3.org/2000/svg" xmlns:xlink="http://www.w3.org/1999/xlink" x="0px" y="0px"
	 viewBox="0 0 200 200" style="enable-background:new 0 0 200 200;" xml:space="preserve">
<g id="Layer_1">
</g>
<g id="Isolation_Mode">
	<g>
		<defs>
			<rect id="SVGID_1_" width="200" height="200"/>
		</defs>
		<clipPath id="SVGID_00000101097187671878045750000005981554037348861631_">
			<use xlink:href="#SVGID_1_"  style="overflow:visible;"/>
		</clipPath>
		
			<linearGradient id="SVGID_00000021799855881529450480000016539576232823599032_" gradientUnits="userSpaceOnUse" x1="93.6951" y1="25.6299" x2="93.3615" y2="-17.3699">
			<stop  offset="0" style="stop-color:#27AAE1"/>
			<stop  offset="0.1948" style="stop-color:#5CB5E5"/>
			<stop  offset="0.6155" style="stop-color:#AFD5F1"/>
			<stop  offset="1" style="stop-color:#FFFFFF"/>
		</linearGradient>
		
			<path style="clip-path:url(#SVGID_00000101097187671878045750000005981554037348861631_);fill-rule:evenodd;clip-rule:evenodd;fill:url(#SVGID_00000021799855881529450480000016539576232823599032_);" d="
			M226.879,3.267c0-9.389-7.611-17-17-17c-7.924,0-14.563,5.43-16.447,12.766c-2.934-2.412-6.691-3.862-10.787-3.862
			c-3.422,0-6.602,1.02-9.268,2.76c-4.263-6.67-11.728-11.097-20.232-11.097c-5.215,0-10.038,1.669-13.975,4.495
			c-2.081-0.908-4.375-1.419-6.791-1.419c-3.855,0-7.397,1.298-10.248,3.459c-1.965-1.49-4.272-2.588-6.85-3.115
			c-3.991-0.816-7.94-0.157-11.286,1.598c-4.061-7.495-11.994-12.585-21.116-12.585c-8.438,0-15.854,4.359-20.133,10.943
			c-3.934,0.734-7.389,2.815-9.867,5.755c-2.44-1.354-5.246-2.131-8.234-2.131c-2.646,0-5.14,0.622-7.374,1.7
			c-2.816-5.498-8.525-9.268-15.126-9.268c-7.686,0-14.174,5.104-16.277,12.105c-0.242-0.01-0.479-0.037-0.723-0.037
			c-2.14,0-4.179,0.413-6.065,1.134c-0.671-10.162-9.104-18.203-19.435-18.203c-10.77,0-19.5,8.731-19.5,19.5s8.73,19.5,19.5,19.5
			c3.152,0,6.121-0.766,8.755-2.094c1.353,8.035,8.325,14.163,16.745,14.163c7.686,0,14.174-5.104,16.277-12.105
			c0.242,0.01,0.479,0.037,0.723,0.037c2.646,0,5.14-0.622,7.374-1.7c2.816,5.498,8.525,9.268,15.126,9.268
			c5.218,0,9.881-2.356,13-6.056c2.44,1.354,5.246,2.131,8.234,2.131c1.373,0,2.7-0.18,3.978-0.487
			c3.751,2.429,8.22,3.845,13.022,3.845c5.534,0,10.627-1.878,14.687-5.025c3.021,4.717,8.296,7.852,14.313,7.852
			c5.849,0,11.006-2.956,14.064-7.453c1.986,0.813,4.156,1.269,6.436,1.269c0.211,0,0.416-0.024,0.625-0.032
			c4.277,6.592,11.697,10.957,20.141,10.957c4.389,0,8.498-1.183,12.037-3.24c1.57,0.479,3.236,0.741,4.963,0.741
			c3.79,0,7.278-1.255,10.105-3.352c0.784,0.111,1.58,0.188,2.395,0.188c2.244,0,4.382-0.446,6.343-1.236
			c2.805,5.532,8.531,9.332,15.157,9.332c9.389,0,17-7.611,17-17c0-1.335-0.169-2.629-0.461-3.875
			C224.467,13.273,226.879,8.552,226.879,3.267z"/>
		
			<linearGradient id="SVGID_00000083798943488856316170000003395921983575146899_" gradientUnits="userSpaceOnUse" x1="93.3315" y1="50.3582" x2="93.7101" y2="7.9805">
			<stop  offset="0" style="stop-color:#27AAE1"/>
			<stop  offset="1" style="stop-color:#FFFFFF"/>
		</linearGradient>
		
			<path style="clip-path:url(#SVGID_00000101097187671878045750000005981554037348861631_);fill-rule:evenodd;clip-rule:evenodd;fill:url(#SVGID_00000083798943488856316170000003395921983575146899_);" d="
			M196.262,6.186c-9.595,0-17.871,5.633-21.713,13.771c-1.112,0.502-2.156,1.123-3.126,1.842c-0.784-0.111-1.58-0.188-2.396-0.188
			c-3.741,0-7.189,1.224-9.997,3.271c-3.029-4.673-8.281-7.772-14.265-7.772c-0.828,0-1.635,0.079-2.431,0.193
			c-2.976-2.561-6.839-4.118-11.073-4.118c-3.854,0-7.397,1.298-10.248,3.459c-1.965-1.49-4.272-2.588-6.85-3.115
			c-7.711-1.576-15.251,2.35-18.601,9.076c-2.442-1.872-5.487-2.996-8.802-2.996c-2.68,0-5.181,0.74-7.335,2.007
			c-2.95-5.038-8.406-8.432-14.665-8.432c-5.218,0-9.881,2.356-13,6.056c-2.44-1.354-5.246-2.131-8.234-2.131
			c-2.646,0-5.14,0.622-7.374,1.7c-2.816-5.498-8.525-9.268-15.127-9.268c-4.713,0-8.977,1.92-12.057,5.019
			C4.569,9.436-1.953,6.185-9.238,6.185c-13.254,0-24,10.746-24,24s10.746,24,24,24c1.805,0,3.561-0.206,5.252-0.583
			c2.388,1.279,5.116,2.009,8.015,2.009c7.686,0,14.174-5.104,16.277-12.104c0.242,0.01,0.479,0.036,0.723,0.036
			c2.646,0,5.14-0.622,7.374-1.7c2.816,5.498,8.525,9.268,15.126,9.268c5.218,0,9.881-2.356,13-6.057
			c2.44,1.355,5.246,2.132,8.234,2.132c4.101,0,7.861-1.452,10.798-3.87c2.659,3.232,6.689,5.295,11.202,5.295
			c3.607,0,6.899-1.325,9.436-3.505c2.973,4.944,8.374,8.264,14.564,8.264c5.849,0,11.006-2.956,14.064-7.453
			c1.986,0.813,4.156,1.27,6.436,1.27c0.827,0,1.635-0.079,2.43-0.193c2.977,2.561,6.84,4.118,11.074,4.118
			c3.741,0,7.189-1.224,9.997-3.272c3.029,4.674,8.281,7.773,14.265,7.773c3.79,0,7.278-1.255,10.105-3.353
			c0.784,0.111,1.58,0.188,2.395,0.188c1.525,0,2.994-0.22,4.4-0.596c3.13,1.496,6.634,2.335,10.334,2.335c13.254,0,24-10.746,24-24
			C220.262,16.932,209.516,6.186,196.262,6.186z"/>
		
			<linearGradient id="SVGID_00000075142010036446732540000003136785268474422165_" gradientUnits="userSpaceOnUse" x1="86.1569" y1="84.6665" x2="88.157" y2="29.6658">
			<stop  offset="0" style="stop-color:#27AAE1"/>
			<stop  offset="0.1948" style="stop-color:#5CB5E5"/>
			<stop  offset="0.6155" style="stop-color:#AFD5F1"/>
			<stop  offset="1" style="stop-color:#FFFFFF"/>
		</linearGradient>
		
			<path style="clip-path:url(#SVGID_00000101097187671878045750000005981554037348861631_);fill-rule:evenodd;clip-rule:evenodd;fill:url(#SVGID_00000075142010036446732540000003136785268474422165_);" d="
			M219.347,65.604c1.396-3.043,2.181-6.426,2.181-9.994c0-13.254-10.745-24-24-24c-9.632,0-17.934,5.678-21.756,13.867
			c-1.956-0.516-4.008-0.798-6.127-0.798c-3.402,0-6.637,0.712-9.569,1.989c-3.85-8.114-12.114-13.728-21.692-13.728
			c-5.023,0-9.684,1.546-13.538,4.184c-2.251-4.524-6.474-8.011-11.81-9.101c-5.83-1.191-11.566,0.763-15.469,4.691
			c-2.331-1.598-5.148-2.536-8.188-2.536c-2.976,0-5.74,0.899-8.042,2.438c-4.241-3.78-9.83-6.08-15.958-6.08
			c-5.616,0-10.778,1.935-14.867,5.167c-0.704-0.063-1.414-0.1-2.133-0.1c-6.377,0-12.168,2.492-16.466,6.549
			c-2.855-2.17-6.405-3.474-10.268-3.474c-1.845,0-3.617,0.304-5.28,0.847c-4.398-5.479-11.147-8.989-18.72-8.989
			c-10.708,0-19.775,7.015-22.865,16.698c-0.864-0.117-1.739-0.198-2.635-0.198c-10.77,0-19.5,8.731-19.5,19.5
			c0,10.769,8.73,19.5,19.5,19.5c3.152,0,6.121-0.766,8.755-2.094c1.354,8.035,8.325,14.162,16.745,14.162c9.389,0,17-7.611,17-17
			c0-0.225-0.025-0.443-0.034-0.668c2.02,1.422,4.361,2.408,6.896,2.84c2.594,6.07,8.618,10.328,15.638,10.328
			c5.218,0,9.881-2.355,13-6.057c2.44,1.355,5.246,2.131,8.234,2.131c3.291,0,6.354-0.951,8.957-2.57
			c3.25,1.643,6.919,2.574,10.81,2.574c4.065,0,7.892-1.014,11.247-2.797c2.866,5.342,8.501,8.977,14.987,8.977
			c5.849,0,11.006-2.955,14.064-7.453c1.986,0.814,4.156,1.27,6.436,1.27c0.827,0,1.635-0.078,2.43-0.193
			c2.977,2.561,6.84,4.119,11.074,4.119c3.741,0,7.189-1.225,9.997-3.271c3.029,4.674,8.281,7.771,14.265,7.771
			c2.425,0,4.727-0.516,6.813-1.43c0.063,0,0.124,0.004,0.187,0.004c3.949,0,7.672-0.959,10.957-2.648
			c0.299-0.102,0.596-0.207,0.886-0.324c2.805,5.531,8.531,9.33,15.157,9.33c9.389,0,17-7.611,17-17
			c0-1.334-0.169-2.629-0.461-3.875C216.829,75.157,219.179,70.656,219.347,65.604z"/>
		
			<linearGradient id="SVGID_00000003107050463595199790000000138366895799862182_" gradientUnits="userSpaceOnUse" x1="84.9205" y1="97.2901" x2="86.9205" y2="47.2905">
			<stop  offset="0" style="stop-color:#27AAE1"/>
			<stop  offset="0.1948" style="stop-color:#5CB5E5"/>
			<stop  offset="0.6155" style="stop-color:#AFD5F1"/>
			<stop  offset="1" style="stop-color:#FFFFFF"/>
		</linearGradient>
		
			<path style="clip-path:url(#SVGID_00000101097187671878045750000005981554037348861631_);fill-rule:evenodd;clip-rule:evenodd;fill:url(#SVGID_00000003107050463595199790000000138366895799862182_);" d="
			M219.379,71.28c0-9.389-7.611-17-17-17c-5.42,0-10.237,2.546-13.35,6.497c-4.366-5.973-11.42-9.854-19.385-9.854
			c-9.621,0-17.916,5.665-21.742,13.839c-2.717-1.839-5.992-2.914-9.52-2.914c-0.494,0-0.98,0.033-1.463,0.074
			c-2.152-4.863-6.532-8.652-12.139-9.797c-8.775-1.793-17.338,3.533-19.739,12.015c-0.222-0.009-0.438-0.033-0.663-0.033
			c-1.425,0-2.801,0.194-4.123,0.524c-2.412-4.66-7.268-7.851-12.877-7.851c-3.042,0-5.863,0.94-8.195,2.542
			C75.04,52.128,67.278,47.28,58.379,47.28c-8.608,0-16.155,4.536-20.39,11.345c-3.1-4.147-8.034-6.845-13.61-6.845
			c-2.894,0-5.617,0.728-8.003,2.003C11.977,48.297,5.224,44.78-2.355,44.78c-6.438,0-12.28,2.541-16.591,6.668
			c-2.672-1.377-5.696-2.168-8.909-2.168c-10.77,0-19.5,8.73-19.5,19.5c0,10.77,8.73,19.5,19.5,19.5c3.152,0,6.12-0.766,8.756-2.094
			c1.353,8.034,8.324,14.162,16.744,14.162c8.509,0,15.538-6.259,16.784-14.42c0.692-0.677,1.341-1.396,1.947-2.151
			c1.578,0.843,3.307,1.432,5.131,1.742c2.594,6.071,8.618,10.328,15.638,10.328c3.773,0,7.247-1.244,10.067-3.324
			c3.336,1.758,7.134,2.757,11.167,2.757c8.899,0,16.661-4.848,20.805-12.042c2.332,1.602,5.152,2.542,8.195,2.542
			c0.222,0,0.438-0.023,0.658-0.033c2.021,7.13,8.564,12.359,16.342,12.359c5.85,0,11.006-2.956,14.064-7.453
			c1.986,0.813,4.156,1.27,6.436,1.27c0.828,0,1.635-0.079,2.43-0.193c2.977,2.561,6.84,4.118,11.074,4.118
			c3.741,0,7.189-1.224,9.997-3.271c3.029,4.674,8.28,7.772,14.265,7.772c2.426,0,4.727-0.516,6.814-1.431
			c0.063,0.001,0.123,0.005,0.186,0.005c3.949,0,7.672-0.96,10.957-2.649c0.299-0.102,0.596-0.207,0.887-0.324
			c2.805,5.531,8.531,9.331,15.156,9.331c9.389,0,17-7.611,17-17c0-1.335-0.17-2.629-0.461-3.876
			C216.967,81.287,219.379,76.565,219.379,71.28z"/>
		
			<linearGradient id="SVGID_00000080918437579915807580000017977777773803831456_" gradientUnits="userSpaceOnUse" x1="81.0352" y1="124.7611" x2="85.7017" y2="73.4277">
			<stop  offset="0" style="stop-color:#27AAE1"/>
			<stop  offset="0.1948" style="stop-color:#5CB5E5"/>
			<stop  offset="0.6155" style="stop-color:#AFD5F1"/>
			<stop  offset="1" style="stop-color:#FFFFFF"/>
		</linearGradient>
		
			<path style="clip-path:url(#SVGID_00000101097187671878045750000005981554037348861631_);fill-rule:evenodd;clip-rule:evenodd;fill:url(#SVGID_00000080918437579915807580000017977777773803831456_);" d="
			M216.629,101.573c0-9.389-7.611-17-17-17c-5.42,0-10.237,2.546-13.35,6.497c-4.366-5.973-11.42-9.854-19.385-9.854
			c-0.045,0-0.088,0.003-0.133,0.003c-4.186-7.029-11.857-11.741-20.633-11.741c-9.549,0-17.794,5.577-21.658,13.651
			c-0.787-0.287-1.594-0.538-2.439-0.711c-3.743-0.766-7.442-0.219-10.65,1.298c-2.93-5.118-8.433-8.575-14.753-8.575
			c-3.222,0-6.223,0.908-8.786,2.467c-2.404-1.301-5.156-2.041-8.081-2.041c-4.795,0-9.118,1.993-12.209,5.187
			c-3.513-2.019-7.581-3.18-11.924-3.18c-4.544,0-8.794,1.264-12.416,3.458c-4.225-3.706-9.757-5.958-15.818-5.958
			c-1.53,0-3.025,0.15-4.476,0.423c-4.086-7.404-11.968-12.423-21.024-12.423c-11.451,0-21.022,8.023-23.417,18.751
			c-2.714-1.432-5.801-2.251-9.083-2.251c-10.77,0-19.5,8.731-19.5,19.5c0,10.77,8.73,19.5,19.5,19.5
			c3.152,0,6.121-0.766,8.755-2.094c1.354,8.034,8.325,14.162,16.745,14.162c8.208,0,15.057-5.818,16.65-13.556
			c3.525,3.105,7.968,5.189,12.871,5.797c2.805,2.04,6.246,3.258,9.979,3.258c3.773,0,7.248-1.244,10.068-3.324
			c3.336,1.758,7.133,2.757,11.166,2.757c8.898,0,16.661-4.848,20.805-12.042c2.332,1.601,5.152,2.542,8.195,2.542
			c0.222,0,0.438-0.023,0.658-0.033c2.021,7.13,8.565,12.359,16.342,12.359c5.849,0,11.006-2.956,14.064-7.453
			c1.986,0.814,4.156,1.27,6.436,1.27c0.827,0,1.635-0.079,2.43-0.193c2.977,2.561,6.84,4.118,11.074,4.118
			c3.741,0,7.189-1.224,9.997-3.271c3.029,4.674,8.281,7.772,14.265,7.772c2.425,0,4.727-0.516,6.813-1.431
			c0.063,0.001,0.124,0.005,0.187,0.005c3.949,0,7.672-0.96,10.957-2.649c0.299-0.102,0.596-0.207,0.886-0.324
			c2.805,5.531,8.531,9.331,15.157,9.331c9.389,0,17-7.611,17-17c0-1.335-0.169-2.629-0.461-3.876
			C214.217,111.58,216.629,106.858,216.629,101.573z"/>
		
			<linearGradient id="SVGID_00000156563600625164785080000004968943826815599025_" gradientUnits="userSpaceOnUse" x1="82.4393" y1="137.7195" x2="83.9393" y2="103.2192">
			<stop  offset="0" style="stop-color:#006838"/>
			<stop  offset="1" style="stop-color:#00A79D"/>
		</linearGradient>
		
			<path style="clip-path:url(#SVGID_00000101097187671878045750000005981554037348861631_);fill-rule:evenodd;clip-rule:evenodd;fill:url(#SVGID_00000156563600625164785080000004968943826815599025_);" d="
			M192.129,106.74c-3.715,0-7.141,1.205-9.938,3.227c-1.309-4.56-4.469-8.328-8.621-10.445c-4.063-3.158-9.164-5.043-14.707-5.043
			c-6.613,0-12.602,2.676-16.941,7.002c-0.02,0-0.039-0.002-0.059-0.002c-3.855,0-7.397,1.297-10.249,3.459
			c-1.964-1.49-4.273-2.588-6.849-3.115c-0.248-0.051-0.494-0.072-0.74-0.113c-4.357-4.459-10.436-7.23-17.162-7.23
			c-8.557,0-16.063,4.482-20.312,11.223c-2.991-2.621-6.898-4.223-11.188-4.223c-5.213,0-9.872,2.35-12.987,6.045
			c-1.831-0.674-3.8-1.061-5.864-1.061c-3.279,0-6.33,0.944-8.927,2.553c-2.379-6.518-8.615-11.18-15.956-11.18
			c-7.686,0-14.174,5.104-16.277,12.104c-0.242-0.01-0.479-0.035-0.723-0.035c-1.761,0-3.459,0.268-5.056,0.764
			C7.186,104.167,0.958,99.52-6.371,99.52c-2.779,0-5.395,0.681-7.711,1.863c-3.031-2.801-7.071-4.526-11.523-4.526
			c-9.389,0-17,7.611-17,17c0,9.389,7.611,17,17,17c2.779,0,5.395-0.681,7.711-1.863c3.03,2.802,7.07,4.526,11.523,4.526
			c1.761,0,3.459-0.268,5.056-0.764c2.388,6.501,8.615,11.149,15.944,11.149c7.686,0,14.174-5.104,16.277-12.107
			c0.242,0.01,0.479,0.037,0.723,0.037c1.942,0,3.8-0.342,5.539-0.941c-0.011,0.256-0.039,0.506-0.039,0.766
			c0,9.39,7.611,17.001,17,17.001c8.298,0,15.199-5.951,16.691-13.815c1.448,0.4,2.967,0.633,4.543,0.633
			c2.803,0,5.44-0.691,7.771-1.893c2.283,1.887,5.157,3.071,8.298,3.27c4.173,3.508,9.554,5.623,15.431,5.623
			c3.18,0,6.213-0.623,8.99-1.748c1.73,0.594,3.578,0.932,5.51,0.932c5.848,0,11.006-2.957,14.064-7.454
			c1.986,0.813,4.156,1.27,6.436,1.27c0.019,0,0.037-0.004,0.057-0.004c4.341,4.329,10.329,7.005,16.943,7.005
			c3.646,0,7.102-0.816,10.197-2.273c2.903,2.309,6.57,3.699,10.568,3.699c3.789,0,7.277-1.256,10.105-3.354
			c0.783,0.111,1.58,0.189,2.395,0.189c9.389,0,17-7.612,17-17.001C209.129,114.352,201.518,106.74,192.129,106.74z"/>
		
			<linearGradient id="SVGID_00000119800341372683007530000002154979422810047920_" gradientUnits="userSpaceOnUse" x1="83.2619" y1="143.9999" x2="83.2619" y2="95.6614">
			<stop  offset="0" style="stop-color:#27AAE1"/>
			<stop  offset="0.1948" style="stop-color:#5CB5E5"/>
			<stop  offset="0.6155" style="stop-color:#AFD5F1"/>
			<stop  offset="1" style="stop-color:#FFFFFF"/>
		</linearGradient>
		
			<path style="clip-path:url(#SVGID_00000101097187671878045750000005981554037348861631_);fill-rule:evenodd;clip-rule:evenodd;fill:url(#SVGID_00000119800341372683007530000002154979422810047920_);" d="
			M192.129,106.74c-3.715,0-7.141,1.205-9.938,3.227c-1.309-4.56-4.469-8.328-8.621-10.445c-4.063-3.158-9.164-5.043-14.707-5.043
			c-6.613,0-12.602,2.676-16.941,7.002c-0.02,0-0.039-0.002-0.059-0.002c-3.855,0-7.397,1.297-10.249,3.459
			c-1.964-1.49-4.273-2.588-6.849-3.115c-0.248-0.051-0.494-0.072-0.74-0.113c-4.357-4.459-10.436-7.23-17.162-7.23
			c-8.557,0-16.063,4.482-20.312,11.223c-2.991-2.621-6.898-4.223-11.188-4.223c-5.213,0-9.872,2.35-12.987,6.045
			c-1.831-0.674-3.8-1.061-5.864-1.061c-3.279,0-6.33,0.944-8.927,2.553c-2.379-6.518-8.615-11.18-15.956-11.18
			c-7.686,0-14.174,5.104-16.277,12.104c-0.242-0.01-0.479-0.035-0.723-0.035c-1.761,0-3.459,0.268-5.056,0.764
			C7.186,104.167,0.958,99.52-6.371,99.52c-2.779,0-5.395,0.681-7.711,1.863c-3.031-2.801-7.071-4.526-11.523-4.526
			c-9.389,0-17,7.611-17,17c0,9.389,7.611,17,17,17c2.779,0,5.395-0.681,7.711-1.863c3.03,2.802,7.07,4.526,11.523,4.526
			c1.761,0,3.459-0.268,5.056-0.764c2.388,6.501,8.615,11.149,15.944,11.149c7.686,0,14.174-5.104,16.277-12.107
			c0.242,0.01,0.479,0.037,0.723,0.037c1.942,0,3.8-0.342,5.539-0.941c-0.011,0.256-0.039,0.506-0.039,0.766
			c0,9.39,7.611,17.001,17,17.001c8.298,0,15.199-5.951,16.691-13.815c1.448,0.4,2.967,0.633,4.543,0.633
			c2.803,0,5.44-0.691,7.771-1.893c2.283,1.887,5.157,3.071,8.298,3.27c4.173,3.508,9.554,5.623,15.431,5.623
			c3.18,0,6.213-0.623,8.99-1.748c1.73,0.594,3.578,0.932,5.51,0.932c5.848,0,11.006-2.957,14.064-7.454
			c1.986,0.813,4.156,1.27,6.436,1.27c0.019,0,0.037-0.004,0.057-0.004c4.341,4.329,10.329,7.005,16.943,7.005
			c3.646,0,7.102-0.816,10.197-2.273c2.903,2.309,6.57,3.699,10.568,3.699c3.789,0,7.277-1.256,10.105-3.354
			c0.783,0.111,1.58,0.189,2.395,0.189c9.389,0,17-7.612,17-17.001C209.129,114.352,201.518,106.74,192.129,106.74z"/>
		
			<linearGradient id="SVGID_00000078038406856442453910000010314816522712459411_" gradientUnits="userSpaceOnUse" x1="83.9886" y1="177.8947" x2="84.3216" y2="124.5611">
			<stop  offset="0" style="stop-color:#27AAE1"/>
			<stop  offset="0.1948" style="stop-color:#5CB5E5"/>
			<stop  offset="0.6155" style="stop-color:#AFD5F1"/>
			<stop  offset="1" style="stop-color:#FFFFFF"/>
		</linearGradient>
		
			<path style="clip-path:url(#SVGID_00000101097187671878045750000005981554037348861631_);fill-rule:evenodd;clip-rule:evenodd;fill:url(#SVGID_00000078038406856442453910000010314816522712459411_);" d="
			M222.902,152.862c0-2.68-0.637-5.205-1.74-7.459c-0.153-13.121-10.834-23.716-23.993-23.716c-8.509,0-15.979,4.434-20.241,11.112
			c-1.225-0.193-2.48-0.295-3.759-0.295c-2.571,0-5.046,0.408-7.367,1.156c-1.112-12.222-11.384-21.8-23.896-21.8
			c-7.813,0-14.75,3.736-19.133,9.516c-1.729-0.395-3.523-0.611-5.371-0.611c-5.928,0-11.35,2.154-15.537,5.715
			c-2.857,0.174-5.519,1.049-7.824,2.461c-3.613-2.178-7.846-3.434-12.373-3.434c-6.643,0-12.654,2.699-17,7.062
			c-4.346-4.362-10.357-7.062-17-7.062c-3.65,0-7.108,0.818-10.205,2.277c-3.096-3.248-7.454-5.281-12.295-5.281
			c-1.845,0-3.617,0.303-5.28,0.848c-4.399-5.479-11.148-8.99-18.72-8.99c-9.758,0-18.15,5.828-21.902,14.189
			c-3.01-1.359-6.347-2.121-9.864-2.121c-13.254,0-24,10.745-24,23.999c0,13.254,10.746,24,24,24c5.798,0,11.116-2.055,15.264-5.479
			c1.809,7.445,8.5,12.98,16.502,12.98c9.389,0,17-7.611,17-17c0-0.227-0.025-0.445-0.034-0.668c2.02,1.422,4.361,2.406,6.896,2.838
			c2.594,6.072,8.618,10.328,15.638,10.328c4.337,0,8.281-1.637,11.284-4.309c1.191-0.215,2.35-0.518,3.472-0.9
			c1.997,0.824,4.183,1.285,6.478,1.285c3.291,0,6.354-0.951,8.957-2.57c3.25,1.643,6.919,2.574,10.81,2.574
			c4.065,0,7.892-1.016,11.247-2.799c2.866,5.344,8.501,8.979,14.987,8.979c5.85,0,11.006-2.955,14.065-7.453
			c1.985,0.813,4.156,1.27,6.435,1.27c0.828,0,1.635-0.08,2.431-0.193c2.976,2.561,6.839,4.117,11.073,4.117
			c3.742,0,7.189-1.223,9.998-3.271c3.029,4.674,8.281,7.773,14.265,7.773c2.425,0,4.726-0.516,6.814-1.432
			c0.063,0.002,0.124,0.006,0.186,0.006c3.948,0,7.671-0.961,10.956-2.65c0.299-0.102,0.596-0.207,0.887-0.324
			c2.805,5.531,8.531,9.332,15.157,9.332c9.389,0,17-7.611,17-17c0-1.336-0.169-2.629-0.461-3.877
			C220.49,162.868,222.902,158.148,222.902,152.862z"/>
		
			<linearGradient id="SVGID_00000039851052902783679380000004113112849068181928_" gradientUnits="userSpaceOnUse" x1="85.2017" y1="203.5096" x2="84.5353" y2="145.1772">
			<stop  offset="0" style="stop-color:#27AAE1"/>
			<stop  offset="0.1948" style="stop-color:#5CB5E5"/>
			<stop  offset="0.6155" style="stop-color:#AFD5F1"/>
			<stop  offset="1" style="stop-color:#FFFFFF"/>
		</linearGradient>
		
			<path style="clip-path:url(#SVGID_00000101097187671878045750000005981554037348861631_);fill-rule:evenodd;clip-rule:evenodd;fill:url(#SVGID_00000039851052902783679380000004113112849068181928_);" d="
			M199.637,150.741c-3.518,0-6.855,0.762-9.864,2.121c-3.751-8.361-12.144-14.189-21.901-14.189c-7.572,0-14.321,3.512-18.721,8.99
			c-1.663-0.543-3.436-0.848-5.279-0.848c-4.842,0-9.199,2.033-12.295,5.281c-3.098-1.457-6.556-2.277-10.205-2.277
			c-6.643,0-12.654,2.701-17,7.061c-4.346-4.359-10.358-7.061-17.001-7.061c-4.526,0-8.759,1.256-12.373,3.434
			c-2.305-1.412-4.967-2.287-7.824-2.459c-4.187-3.563-9.609-5.717-15.537-5.717c-1.847,0-3.643,0.217-5.37,0.611
			c-4.383-5.779-11.321-9.516-19.133-9.516c-12.512,0-22.784,9.578-23.896,21.801c-2.322-0.748-4.796-1.158-7.367-1.158
			c-1.279,0-2.534,0.104-3.759,0.295c-4.262-6.678-11.731-11.111-20.241-11.111c-13.159,0-23.84,10.594-23.993,23.717
			c-1.104,2.254-1.741,4.779-1.741,7.457c0,5.285,2.412,10.008,6.195,13.125c-0.292,1.246-0.461,2.541-0.461,3.875
			c0,9.389,7.611,17,17,17c6.627,0,12.353-3.799,15.158-9.33c0.29,0.117,0.587,0.223,0.886,0.324
			c3.285,1.689,7.008,2.648,10.957,2.648c0.063,0,0.124-0.004,0.187-0.004c2.087,0.914,4.389,1.43,6.813,1.43
			c5.984,0,11.236-3.098,14.265-7.771c2.808,2.047,6.256,3.271,9.998,3.271c4.234,0,8.097-1.559,11.073-4.119
			c0.796,0.115,1.603,0.193,2.43,0.193c2.279,0,4.449-0.455,6.435-1.27c3.059,4.498,8.216,7.453,14.065,7.453
			c6.486,0,12.121-3.635,14.987-8.976c3.355,1.783,7.182,2.797,11.247,2.797c3.89,0,7.56-0.932,10.81-2.574
			c2.603,1.619,5.666,2.57,8.957,2.57c2.295,0,4.48-0.461,6.478-1.285c1.122,0.385,2.282,0.686,3.472,0.9
			c3.004,2.674,6.948,4.311,11.285,4.311c7.02,0,13.043-4.258,15.637-10.328c2.535-0.432,4.877-1.418,6.896-2.84
			c-0.009,0.225-0.033,0.443-0.033,0.668c0,9.389,7.611,17,17,17c8.001,0,14.693-5.535,16.502-12.98
			c4.148,3.424,9.466,5.48,15.264,5.48c13.254,0,24-10.746,24-24C223.637,161.487,212.891,150.741,199.637,150.741z"/>
		
			<linearGradient id="SVGID_00000006679644674070469750000002605449181840982946_" gradientUnits="userSpaceOnUse" x1="91.1232" y1="224.81" x2="92.7901" y2="161.4767">
			<stop  offset="0" style="stop-color:#27AAE1"/>
			<stop  offset="0.1948" style="stop-color:#5CB5E5"/>
			<stop  offset="0.6155" style="stop-color:#AFD5F1"/>
			<stop  offset="1" style="stop-color:#FFFFFF"/>
		</linearGradient>
		
			<path style="clip-path:url(#SVGID_00000101097187671878045750000005981554037348861631_);fill-rule:evenodd;clip-rule:evenodd;fill:url(#SVGID_00000006679644674070469750000002605449181840982946_);" d="
			M233.207,189.073c0-13.254-10.745-24-24-24c-8.714,0-16.343,4.645-20.547,11.594c-2.67-1.023-5.564-1.59-8.594-1.59
			c-2.797,0-5.48,0.482-7.976,1.363c-2.327-6.617-8.613-11.367-16.024-11.367c-6.283,0-11.758,3.418-14.7,8.488
			c-2.03,0.91-3.846,2.203-5.36,3.791c-3.098-1.457-6.556-2.275-10.205-2.275c-0.774,0-1.539,0.039-2.294,0.111
			c-3.843-8.131-12.116-13.758-21.706-13.758c-7.95,0-14.994,3.869-19.362,9.822c-2.688-1.779-5.907-2.822-9.373-2.822
			c-5.156,0-9.767,2.305-12.885,5.93c-4.126-3.352-9.385-5.363-15.115-5.363c-8.868,0-16.607,4.814-20.763,11.969
			c-4.214-3.664-9.714-5.889-15.737-5.889c-5.252,0-10.106,1.691-14.059,4.555c-4.401-5.125-10.923-8.375-18.208-8.375
			c-13.159,0-23.84,10.594-23.993,23.715c-1.104,2.254-1.741,4.779-1.741,7.459c0,5.285,2.412,10.006,6.195,13.123
			c-0.292,1.248-0.461,2.541-0.461,3.877c0,9.389,7.611,17,17,17c6.626,0,12.353-3.801,15.158-9.332
			c0.29,0.117,0.587,0.223,0.886,0.324c3.285,1.689,7.008,2.65,10.957,2.65c0.063,0,0.125-0.004,0.187-0.006
			c2.087,0.916,4.389,1.432,6.813,1.432c5.984,0,11.236-3.1,14.265-7.773c2.808,2.049,6.256,3.271,9.998,3.271
			c4.234,0,8.097-1.557,11.073-4.117c0.796,0.113,1.603,0.193,2.43,0.193c2.279,0,4.449-0.457,6.435-1.27
			c3.059,4.498,8.216,7.453,14.065,7.453c6.486,0,12.121-3.635,14.987-8.979c3.355,1.783,7.182,2.799,11.247,2.799
			c3.89,0,7.56-0.932,10.809-2.574c2.604,1.619,5.666,2.57,8.957,2.57c2.295,0,4.48-0.461,6.478-1.285
			c1.122,0.383,2.282,0.686,3.472,0.9c3.004,2.672,6.948,4.309,11.285,4.309c7.02,0,13.043-4.256,15.637-10.328
			c2.535-0.432,4.877-1.416,6.896-2.838c-0.009,0.223-0.033,0.441-0.033,0.668c0,9.389,7.611,17,17,17
			c6.746,0,12.559-3.941,15.305-9.637c1.272-0.422,2.499-0.945,3.668-1.563c3.703,2.338,8.088,3.697,12.793,3.697
			c11.74,0,21.507-8.434,23.586-19.572C231.119,200.265,233.207,194.913,233.207,189.073z"/>
	</g>
</g>
</svg>
